<svg width="449" height="397" viewBox="0 0 449 397" fill="none" xmlns="http://www.w3.org/2000/svg">
<path d="M31.9476 300.249L38.8522 296.238C38.8522 296.238 42.9077 279.105 41.3159 263.662C39.0144 241.989 24.8098 233.825 19.4058 235.698C14.0018 237.571 12.4302 243.842 21.3727 256.791C26.6551 264.436 33.1338 280.306 31.9476 300.249Z" fill="#F8ED41"/>
<g opacity="0.15">
<path opacity="0.15" d="M31.9476 300.249L38.8522 296.238C38.8522 296.238 42.9077 279.105 41.3159 263.662C39.0144 241.989 24.8098 233.825 19.4058 235.698C14.0018 237.571 12.4302 243.842 21.3727 256.791C26.6551 264.436 33.1338 280.306 31.9476 300.249Z" fill="black"/>
</g>
<path d="M34.8068 291.83H34.7459C34.6197 291.806 34.5084 291.732 34.4362 291.625C34.364 291.518 34.3368 291.387 34.3606 291.26C38.1424 271.267 31.1872 248.799 22.5691 239.454C22.5265 239.407 22.4935 239.352 22.472 239.293C22.4505 239.233 22.4408 239.17 22.4437 239.107C22.4465 239.043 22.4617 238.981 22.4885 238.924C22.5152 238.866 22.553 238.815 22.5996 238.772C22.6462 238.729 22.7007 238.696 22.7601 238.674C22.8194 238.653 22.8824 238.643 22.9455 238.646C23.0086 238.649 23.0705 238.664 23.1277 238.691C23.1849 238.718 23.2363 238.756 23.2789 238.803C32.049 248.321 39.1361 271.155 35.3036 291.443C35.2797 291.556 35.2167 291.657 35.1257 291.728C35.0348 291.799 34.9218 291.835 34.8068 291.83Z" fill="#26341C"/>
<path d="M12.8764 313.768C11.7915 314.328 8.89179 311.834 8.08068 311.233C6.69518 310.172 5.60568 308.769 4.91735 307.161C4.137 305.35 3.94198 303.338 4.35972 301.41C4.57678 300.372 4.86819 299.351 5.23166 298.356C5.56624 297.389 5.89069 296.411 6.24555 295.444C6.6361 294.51 6.83274 293.505 6.82346 292.492C6.67138 290.456 4.95791 288.96 3.39652 287.656C1.65264 286.292 -0.121666 284.419 4.35859e-07 281.986C0.224629 280.111 1.06263 278.364 2.38264 277.018C3.60944 275.603 5.04916 274.372 6.17457 272.875C7.05228 271.834 7.54949 270.523 7.58388 269.159C7.50854 268.324 7.27087 267.511 6.88429 266.767C5.97328 265.213 5.19325 263.585 4.55235 261.901C4.04541 260.181 4.23805 258.073 5.56624 256.923C6.17653 256.509 6.86327 256.222 7.58594 256.078C8.3086 255.935 9.05255 255.938 9.77387 256.088C11.1395 256.328 12.4369 256.863 13.576 257.656C17.3172 259.997 19.274 264.67 23.2687 266.523C24.8585 267.114 26.4839 267.604 28.1354 267.989C28.962 268.186 29.7383 268.556 30.4141 269.073C31.0899 269.59 31.6503 270.244 32.0591 270.992C33.4076 274.046 30.447 277.619 31.3393 280.856C32.1301 283.717 34.7966 284.928 36.2059 287.555C36.7678 288.71 36.9523 290.014 36.7331 291.281C36.488 293.414 35.8557 295.484 34.8676 297.389C33.7593 299.36 32.5301 301.261 31.1872 303.079C31.1872 303.079 13.0487 313.687 12.8764 313.768Z" fill="#F8ED41"/>
<path d="M23.4411 308.24C23.3779 308.237 23.3162 308.22 23.2596 308.192C23.2031 308.163 23.1529 308.123 23.1121 308.075C23.0713 308.026 23.0408 307.97 23.0224 307.909C23.004 307.848 22.9981 307.784 23.0051 307.721C24.749 288.705 16.8609 267.205 10.6661 260.761C10.6213 260.717 10.5857 260.665 10.5614 260.607C10.5371 260.55 10.5246 260.488 10.5246 260.425C10.5246 260.362 10.5371 260.3 10.5614 260.242C10.5857 260.185 10.6213 260.133 10.6661 260.089C10.7104 260.044 10.7633 260.008 10.8216 259.983C10.8799 259.959 10.9425 259.946 11.0057 259.946C11.069 259.946 11.1316 259.959 11.1899 259.983C11.2482 260.008 11.3011 260.044 11.3454 260.089C17.6619 266.655 25.7122 288.512 23.948 307.792C23.9377 307.918 23.879 308.036 23.7845 308.119C23.69 308.203 23.5669 308.246 23.4411 308.24Z" fill="#26341C"/>
<path d="M21.5654 284.796C21.5182 284.801 21.4706 284.801 21.4234 284.796C16.9863 283.327 12.4039 282.344 7.75623 281.864C7.62985 281.852 7.51345 281.79 7.43264 281.691C7.35183 281.593 7.31323 281.467 7.32533 281.34C7.33743 281.213 7.39924 281.096 7.49716 281.015C7.59509 280.934 7.7211 280.895 7.84748 280.907C12.5744 281.396 17.2349 282.396 21.7479 283.89C21.8075 283.911 21.8623 283.944 21.9089 283.988C21.9556 284.031 21.9933 284.082 22.0197 284.14C22.0461 284.198 22.0608 284.261 22.0629 284.324C22.065 284.388 22.0544 284.451 22.0318 284.511C21.9937 284.601 21.9282 284.678 21.8445 284.729C21.7607 284.78 21.6631 284.803 21.5654 284.796Z" fill="#26341C"/>
<path d="M17.4287 324.905L138.781 395.239C140.697 396.352 142.864 396.957 145.077 396.998C147.291 397.039 149.478 396.514 151.434 395.473L395.781 253.849C399.624 251.609 402.747 246.621 402.747 242.651C402.747 238.681 399.634 233.733 395.781 231.504L274.845 161.465C272.683 160.368 270.296 159.797 267.874 159.797C265.453 159.797 263.065 160.368 260.904 161.465L17.4287 302.611C13.5861 304.84 10.4633 309.839 10.4633 313.758C10.4633 317.677 13.5861 322.706 17.4287 324.905Z" fill="#37474F"/>
<path d="M138.771 395.239L17.4287 324.905C13.5861 322.676 10.4633 317.688 10.4633 313.707C10.4633 309.727 13.5861 304.79 17.4287 302.56L145.381 228.389V397.021C143.059 397.029 140.777 396.414 138.771 395.239Z" fill="#263238"/>
<path d="M141.66 382.707C143.566 383.671 145.67 384.173 147.804 384.173C149.938 384.173 152.043 383.671 153.949 382.707L395.771 242.529C400.972 239.475 400.972 234.578 395.771 231.565L274.855 161.465C272.693 160.368 270.306 159.797 267.884 159.797C265.463 159.797 263.075 160.368 260.914 161.465L17.4389 302.611C13.6064 304.83 13.6064 308.475 17.4389 310.694L141.66 382.707Z" fill="#455A64"/>
<path d="M153.401 368.588C155.455 369.632 157.725 370.175 160.027 370.175C162.329 370.175 164.599 369.632 166.653 368.588L374.733 247.965C378.383 245.847 378.383 242.406 374.733 240.289L260.975 174.353C258.921 173.314 256.653 172.773 254.354 172.773C252.054 172.773 249.787 173.314 247.733 174.353L39.6531 294.976C36.0133 297.093 36.0133 300.544 39.6531 302.662L153.401 368.588Z" fill="#37474F"/>
<path d="M254.759 172.796C256.926 172.806 259.058 173.34 260.975 174.353L374.733 240.248C378.383 242.366 378.383 245.807 374.733 247.924L352.184 260.995L254.759 198.531V172.796Z" fill="#263238"/>
<path d="M247.652 179.351C249.706 178.308 251.976 177.764 254.278 177.764C256.58 177.764 258.85 178.308 260.904 179.351L374.652 245.277C375.298 245.644 375.88 246.116 376.375 246.672C375.897 247.185 375.343 247.621 374.733 247.965L166.653 368.588C164.599 369.632 162.329 370.176 160.027 370.176C157.725 370.176 155.455 369.632 153.401 368.588L39.6531 302.662C39.0155 302.311 38.4372 301.861 37.9397 301.328C38.399 300.795 38.9397 300.338 39.5416 299.974L247.652 179.351Z" fill="#FAFAFA"/>
<path d="M333.153 209.454L312.987 197.767C311.791 197.065 311.73 195.975 312.855 195.314C313.516 194.995 314.241 194.837 314.974 194.851C315.706 194.865 316.425 195.051 317.073 195.395L337.239 207.082C338.436 207.784 338.496 208.874 337.371 209.525C336.712 209.848 335.987 210.009 335.254 209.997C334.521 209.984 333.801 209.798 333.153 209.454Z" fill="#263238"/>
<path d="M298.529 189.409C298.281 189.328 298.065 189.17 297.911 188.958C297.758 188.746 297.675 188.491 297.675 188.228C297.675 187.966 297.758 187.711 297.911 187.499C298.065 187.287 298.281 187.129 298.529 187.048C299.157 186.727 299.852 186.559 300.557 186.559C301.262 186.559 301.956 186.727 302.585 187.048C302.833 187.129 303.049 187.287 303.202 187.499C303.356 187.711 303.438 187.966 303.438 188.228C303.438 188.491 303.356 188.746 303.202 188.958C303.049 189.17 302.833 189.328 302.585 189.409C301.956 189.73 301.262 189.898 300.557 189.898C299.852 189.898 299.157 189.73 298.529 189.409Z" fill="#263238"/>
<path d="M290.357 184.665C290.109 184.584 289.892 184.426 289.739 184.214C289.586 184.002 289.503 183.747 289.503 183.485C289.503 183.222 289.586 182.967 289.739 182.755C289.892 182.543 290.109 182.385 290.357 182.304C290.987 181.987 291.681 181.823 292.385 181.823C293.089 181.823 293.783 181.987 294.413 182.304C294.661 182.385 294.877 182.543 295.03 182.755C295.184 182.967 295.266 183.222 295.266 183.485C295.266 183.747 295.184 184.002 295.03 184.214C294.877 184.426 294.661 184.584 294.413 184.665C293.784 184.986 293.09 185.154 292.385 185.154C291.68 185.154 290.985 184.986 290.357 184.665Z" fill="#263238"/>
<path d="M355.743 222.566C355.494 222.484 355.278 222.326 355.125 222.114C354.971 221.902 354.889 221.647 354.889 221.385C354.889 221.123 354.971 220.867 355.125 220.655C355.278 220.443 355.494 220.285 355.743 220.204C356.372 219.886 357.066 219.72 357.77 219.72C358.475 219.72 359.169 219.886 359.798 220.204C360.046 220.285 360.263 220.443 360.416 220.655C360.569 220.867 360.652 221.123 360.652 221.385C360.652 221.647 360.569 221.902 360.416 222.114C360.263 222.326 360.046 222.484 359.798 222.566C359.171 222.888 358.476 223.056 357.77 223.056C357.065 223.056 356.37 222.888 355.743 222.566Z" fill="#263238"/>
<path d="M347.571 217.852C347.322 217.771 347.106 217.613 346.953 217.401C346.8 217.189 346.717 216.933 346.717 216.671C346.717 216.409 346.8 216.154 346.953 215.942C347.106 215.73 347.322 215.572 347.571 215.49C348.2 215.174 348.895 215.01 349.598 215.01C350.302 215.01 350.997 215.174 351.626 215.49C351.874 215.572 352.091 215.73 352.244 215.942C352.397 216.154 352.48 216.409 352.48 216.671C352.48 216.933 352.397 217.189 352.244 217.401C352.091 217.613 351.874 217.771 351.626 217.852C350.998 218.173 350.303 218.34 349.598 218.34C348.894 218.34 348.199 218.173 347.571 217.852Z" fill="#263238"/>
<path d="M148.322 334.922V335.36C148.344 335.745 148.455 336.12 148.647 336.454C148.839 336.788 149.106 337.072 149.427 337.284L173.101 350.997C173.441 351.173 173.818 351.264 174.201 351.264C174.584 351.264 174.961 351.173 175.301 350.997L214.498 328.275C214.819 328.066 215.087 327.783 215.279 327.451C215.471 327.118 215.582 326.745 215.603 326.361V325.923C215.583 325.538 215.472 325.163 215.28 324.828C215.088 324.494 214.82 324.21 214.498 323.999L190.834 310.277C190.492 310.101 190.113 310.009 189.729 310.009C189.344 310.009 188.966 310.101 188.624 310.277L149.427 332.998C149.105 333.209 148.837 333.493 148.645 333.828C148.453 334.162 148.342 334.537 148.322 334.922Z" fill="#4F6131"/>
<path d="M148.322 334.922V335.36C148.344 335.745 148.455 336.12 148.647 336.454C148.839 336.788 149.106 337.072 149.427 337.284L173.101 350.997C173.441 351.173 173.818 351.264 174.201 351.264C174.584 351.264 174.961 351.173 175.301 350.997L214.498 328.275C214.819 328.066 215.087 327.783 215.279 327.451C215.471 327.118 215.582 326.745 215.603 326.361V325.923C215.583 325.538 215.472 325.163 215.28 324.828C215.088 324.494 214.82 324.21 214.498 323.999L190.834 310.277C190.492 310.101 190.113 310.009 189.729 310.009C189.344 310.009 188.966 310.101 188.624 310.277L149.427 332.998C149.105 333.209 148.837 333.493 148.645 333.828C148.453 334.162 148.342 334.537 148.322 334.922Z" fill="#4F6131"/>
<path opacity="0.3" d="M214.498 323.979L190.834 310.256C190.492 310.08 190.113 309.989 189.729 309.989C189.344 309.989 188.966 310.08 188.624 310.256L174.196 318.634V351.211C174.581 351.222 174.963 351.131 175.301 350.946L214.498 328.224C214.819 328.015 215.087 327.732 215.279 327.4C215.471 327.067 215.582 326.694 215.603 326.31V325.872C215.578 325.492 215.465 325.123 215.273 324.795C215.081 324.466 214.816 324.187 214.498 323.979Z" fill="white"/>
<path opacity="0.15" d="M214.498 323.979L190.834 310.256C190.492 310.08 190.113 309.989 189.729 309.989C189.344 309.989 188.966 310.08 188.624 310.256L174.196 318.634V351.211C174.581 351.222 174.963 351.131 175.301 350.946L214.498 328.224C214.819 328.015 215.087 327.732 215.279 327.4C215.471 327.067 215.582 326.694 215.603 326.31V325.872C215.578 325.492 215.465 325.123 215.273 324.795C215.081 324.466 214.816 324.187 214.498 323.979Z" fill="black"/>
<path opacity="0.3" d="M174.196 318.635L149.427 332.999C149.105 333.209 148.837 333.493 148.645 333.828C148.453 334.162 148.342 334.537 148.322 334.923V335.36C148.344 335.745 148.455 336.12 148.647 336.454C148.839 336.788 149.106 337.072 149.427 337.284L173.101 350.997C173.436 351.181 173.814 351.272 174.196 351.261V318.635Z" fill="white"/>
<path opacity="0.2" d="M174.196 318.635L149.427 332.999C149.105 333.209 148.837 333.493 148.645 333.828C148.453 334.162 148.342 334.537 148.322 334.923V335.36C148.344 335.745 148.455 336.12 148.647 336.454C148.839 336.788 149.106 337.072 149.427 337.284L173.101 350.997C173.436 351.181 173.814 351.272 174.196 351.261V318.635Z" fill="black"/>
<path d="M169.319 345.785L149.437 334.261C149.306 334.213 149.192 334.126 149.112 334.011C149.032 333.896 148.989 333.76 148.989 333.619C148.989 333.479 149.032 333.342 149.112 333.228C149.192 333.113 149.306 333.026 149.437 332.978L188.583 310.256C188.925 310.08 189.304 309.989 189.688 309.989C190.073 309.989 190.451 310.08 190.793 310.256L214.457 323.979C214.589 324.027 214.702 324.114 214.782 324.229C214.863 324.343 214.906 324.48 214.906 324.62C214.906 324.76 214.863 324.897 214.782 325.012C214.702 325.127 214.589 325.214 214.457 325.262L207.958 329.028L205.677 330.352L175.261 347.983C174.919 348.154 174.542 348.242 174.161 348.242C173.779 348.242 173.402 348.154 173.06 347.983L171.124 346.864L169.319 345.785Z" fill="#4F6131"/>
<path d="M169.319 345.785L149.437 334.261C149.306 334.213 149.192 334.126 149.112 334.011C149.032 333.896 148.989 333.76 148.989 333.619C148.989 333.479 149.032 333.342 149.112 333.228C149.192 333.113 149.306 333.026 149.437 332.978L188.583 310.256C188.925 310.08 189.304 309.989 189.688 309.989C190.073 309.989 190.451 310.08 190.793 310.256L214.457 323.979C214.589 324.027 214.702 324.114 214.782 324.229C214.863 324.343 214.906 324.48 214.906 324.62C214.906 324.76 214.863 324.897 214.782 325.012C214.702 325.127 214.589 325.214 214.457 325.262L207.958 329.028L205.677 330.352L175.261 347.983C174.919 348.154 174.542 348.242 174.161 348.242C173.779 348.242 173.402 348.154 173.06 347.983L171.124 346.864L169.319 345.785Z" fill="#4F6131"/>
<path d="M187.356 326.636L214.498 323.979L187.569 325.506L190.814 310.236C190.441 310.045 190.025 309.957 189.607 309.982L184.538 330.596L148.97 333.548C148.968 333.695 149.01 333.839 149.089 333.962C149.169 334.085 149.282 334.182 149.417 334.24L178.14 332.561L174.186 348.228L179.255 332.5L184.162 332.215C184.764 332.178 185.336 331.938 185.785 331.533C186.209 331.157 186.5 330.653 186.616 330.097L187.356 326.636Z" fill="#F3F4D3"/>
<path d="M157.467 332.886L184.528 330.616L185.541 326.717L186.079 324.549L189.597 310.002C189.243 310.002 188.895 310.09 188.583 310.256L168.985 321.617L149.386 332.978C149.27 333.033 149.168 333.115 149.09 333.218C149.013 333.321 148.961 333.441 148.94 333.568L154.375 333.11L157.467 332.886Z" fill="#4F6131"/>
<path d="M185.247 307.009C186.636 306.301 188.171 305.933 189.729 305.933C191.286 305.933 192.821 306.301 194.21 307.009C196.684 308.434 196.684 310.765 194.21 312.201C192.821 312.908 191.286 313.277 189.729 313.277C188.171 313.277 186.636 312.908 185.247 312.201C182.773 310.765 182.773 308.454 185.247 307.009Z" fill="#F8ED41"/>
<path d="M186.555 310.49C186.488 310.487 186.424 310.462 186.373 310.419C186.351 310.408 186.334 310.39 186.325 310.367C186.316 310.345 186.315 310.32 186.322 310.297L186.687 308.658C186.69 308.611 186.69 308.563 186.687 308.515C186.715 308.452 186.765 308.401 186.829 308.373L187.731 307.844C187.794 307.81 187.863 307.792 187.934 307.792C188.005 307.792 188.075 307.81 188.137 307.844L192.933 310.623C192.957 310.632 192.979 310.648 192.993 310.67C193.008 310.692 193.015 310.718 193.014 310.745C193.013 310.77 193.005 310.794 192.99 310.814C192.976 310.834 192.956 310.849 192.933 310.857L191.919 311.427C191.852 311.444 191.782 311.444 191.716 311.427C191.653 311.443 191.586 311.443 191.523 311.427L188.39 309.472L188.178 310.368C188.172 310.394 188.159 310.418 188.142 310.438C188.124 310.457 188.101 310.472 188.076 310.48C188.006 310.5 187.933 310.5 187.863 310.48L186.555 310.49Z" fill="#26341C"/>
<path d="M230.771 317.555L204.136 302.122C203.528 301.766 203.528 301.196 204.136 300.85L300.78 244.86C301.122 244.689 301.498 244.601 301.88 244.601C302.262 244.601 302.638 244.689 302.98 244.86L329.615 260.303C330.223 260.649 330.223 261.219 329.615 261.575L232.961 317.566C232.622 317.74 232.246 317.83 231.865 317.828C231.484 317.826 231.108 317.733 230.771 317.555Z" fill="#4F6131"/>
<path d="M225.651 300.117C225.564 300.166 225.466 300.19 225.367 300.188H225.154L219.618 299.557L222.903 301.461C222.927 301.471 222.948 301.488 222.962 301.51C222.977 301.531 222.984 301.557 222.984 301.583C222.984 301.609 222.977 301.635 222.962 301.656C222.948 301.678 222.927 301.695 222.903 301.705L222.254 302.082C222.188 302.116 222.115 302.133 222.041 302.133C221.967 302.135 221.894 302.118 221.828 302.082L216.688 299.099C216.664 299.089 216.643 299.072 216.629 299.05C216.615 299.029 216.607 299.003 216.607 298.977C216.607 298.951 216.615 298.925 216.629 298.904C216.643 298.882 216.664 298.865 216.688 298.855L217.236 298.529C217.322 298.479 217.42 298.451 217.519 298.448H217.732L223.268 299.079L220.014 297.185C219.988 297.176 219.966 297.159 219.95 297.137C219.934 297.116 219.924 297.09 219.922 297.063C219.922 297.012 219.922 296.971 220.014 296.931L220.662 296.564C220.726 296.524 220.801 296.506 220.875 296.513C220.95 296.508 221.024 296.526 221.088 296.564L226.229 299.537C226.29 299.537 226.32 299.618 226.32 299.669C226.317 299.696 226.307 299.721 226.291 299.743C226.275 299.764 226.253 299.781 226.229 299.791L225.651 300.117Z" fill="#FAFAFA"/>
<path d="M225.316 297.908C225.053 297.762 224.817 297.573 224.617 297.348C224.458 297.172 224.356 296.952 224.323 296.717C224.294 296.498 224.349 296.277 224.475 296.096C224.642 295.862 224.86 295.671 225.113 295.536C225.431 295.361 225.773 295.234 226.127 295.159C226.46 295.084 226.8 295.049 227.141 295.058C227.484 295.065 227.824 295.113 228.155 295.2C228.477 295.283 228.787 295.406 229.078 295.567L229.433 295.78C229.457 295.79 229.477 295.807 229.492 295.829C229.506 295.851 229.514 295.876 229.514 295.903C229.514 295.929 229.506 295.954 229.492 295.976C229.477 295.998 229.457 296.015 229.433 296.025L226.776 297.562C226.899 297.633 227.033 297.685 227.172 297.715C227.316 297.735 227.463 297.735 227.608 297.715C227.759 297.702 227.908 297.675 228.054 297.633C228.187 297.588 228.316 297.53 228.439 297.46C228.573 297.39 228.696 297.301 228.804 297.195C228.865 297.128 228.91 297.048 228.936 296.961C228.943 296.914 228.96 296.869 228.986 296.829C229.023 296.786 229.067 296.751 229.118 296.727L229.757 296.361C229.82 296.32 229.895 296.302 229.97 296.31C230.007 296.304 230.045 296.305 230.081 296.314C230.118 296.322 230.152 296.338 230.183 296.361C230.263 296.417 230.32 296.5 230.345 296.595C230.386 296.724 230.386 296.863 230.345 296.992C230.281 297.174 230.185 297.343 230.061 297.491C229.869 297.7 229.643 297.876 229.392 298.01C229.078 298.193 228.735 298.32 228.378 298.386C228.046 298.467 227.705 298.501 227.364 298.488C227.001 298.48 226.639 298.425 226.29 298.325C225.95 298.226 225.623 298.086 225.316 297.908ZM226.077 296.086C225.951 296.154 225.837 296.243 225.742 296.35C225.687 296.428 225.655 296.52 225.651 296.615C225.646 296.698 225.667 296.78 225.712 296.849C225.758 296.923 225.816 296.988 225.884 297.043L227.689 296.025L227.374 295.923C227.254 295.881 227.127 295.86 226.999 295.862C226.851 295.848 226.702 295.848 226.553 295.862C226.391 295.913 226.237 295.989 226.097 296.086H226.077Z" fill="#FAFAFA"/>
<path d="M234.411 293.103L232.849 291.362L232.789 291.25C232.789 291.25 232.789 291.169 232.88 291.128L233.488 290.772C233.554 290.738 233.627 290.721 233.701 290.721C233.775 290.718 233.849 290.736 233.914 290.772L236.378 293.592C236.409 293.628 236.433 293.669 236.449 293.714C236.449 293.714 236.449 293.795 236.347 293.846L235.739 294.192C235.676 294.233 235.601 294.251 235.526 294.243H235.313L232.424 293.459L233.772 295.139C233.796 295.178 233.817 295.219 233.833 295.261C233.833 295.261 233.833 295.343 233.742 295.383L233.133 295.74C233.066 295.78 232.988 295.798 232.91 295.791H232.707L227.831 294.365H227.77C227.746 294.355 227.725 294.338 227.711 294.317C227.696 294.295 227.689 294.269 227.689 294.243C227.689 294.217 227.696 294.192 227.711 294.17C227.725 294.148 227.746 294.131 227.77 294.121L228.378 293.765C228.441 293.724 228.516 293.706 228.591 293.714H228.794L231.785 294.61L230.274 292.849C230.266 292.831 230.262 292.812 230.262 292.793C230.262 292.773 230.266 292.754 230.274 292.737C230.274 292.686 230.274 292.645 230.355 292.614L230.953 292.258C231.016 292.21 231.089 292.179 231.166 292.166H231.369L234.411 293.103Z" fill="#FAFAFA"/>
<path d="M238.01 290.548C237.74 290.408 237.5 290.218 237.3 289.988C237.142 289.815 237.04 289.599 237.006 289.367C236.986 289.147 237.043 288.927 237.169 288.746C237.332 288.506 237.551 288.311 237.807 288.176C238.123 287.997 238.465 287.87 238.821 287.799C239.154 287.728 239.494 287.693 239.835 287.697C240.177 287.71 240.517 287.758 240.849 287.84C241.17 287.92 241.477 288.047 241.761 288.217L242.126 288.42C242.151 288.429 242.173 288.446 242.187 288.468C242.202 288.49 242.209 288.516 242.208 288.542C242.207 288.57 242.199 288.596 242.185 288.62C242.171 288.643 242.151 288.662 242.126 288.675L239.47 290.212C239.591 290.285 239.726 290.333 239.865 290.354C240.01 290.37 240.157 290.37 240.301 290.354C240.45 290.344 240.597 290.314 240.737 290.263C240.876 290.222 241.009 290.164 241.133 290.09C241.264 290.021 241.384 289.932 241.488 289.825C241.552 289.76 241.597 289.679 241.62 289.591C241.636 289.545 241.656 289.501 241.68 289.458C241.715 289.418 241.756 289.383 241.802 289.357L242.441 288.99C242.514 288.973 242.59 288.973 242.664 288.99C242.734 288.974 242.807 288.974 242.877 288.99C242.951 289.052 243.007 289.133 243.039 289.224C243.074 289.358 243.074 289.498 243.039 289.632C242.983 289.814 242.886 289.981 242.755 290.12C242.57 290.336 242.346 290.515 242.096 290.65C241.796 290.823 241.471 290.95 241.133 291.026C240.8 291.103 240.46 291.137 240.119 291.128C239.755 291.116 239.394 291.058 239.044 290.955C238.682 290.868 238.334 290.731 238.01 290.548ZM238.76 288.726C238.634 288.793 238.523 288.887 238.436 289C238.376 289.073 238.341 289.162 238.334 289.255C238.333 289.342 238.358 289.427 238.405 289.499C238.452 289.57 238.51 289.632 238.578 289.682L240.372 288.664C240.275 288.618 240.173 288.58 240.068 288.552C239.942 288.519 239.813 288.502 239.683 288.502C239.538 288.482 239.392 288.482 239.247 288.502C239.077 288.558 238.914 288.633 238.76 288.726Z" fill="#FAFAFA"/>
<path d="M242.147 286.221C242.12 286.055 242.157 285.884 242.248 285.743C242.365 285.578 242.517 285.442 242.694 285.346C243.006 285.16 243.35 285.036 243.708 284.979C244.044 284.932 244.386 284.932 244.722 284.979C244.691 284.876 244.691 284.767 244.722 284.664C244.737 284.557 244.771 284.453 244.823 284.358C244.886 284.254 244.96 284.158 245.046 284.073C245.145 283.987 245.25 283.909 245.361 283.839C245.644 283.675 245.952 283.558 246.273 283.493C246.567 283.436 246.867 283.419 247.165 283.442C247.456 283.47 247.742 283.535 248.017 283.635C248.291 283.733 248.556 283.856 248.808 284.002L250.947 285.244C250.979 285.244 251.01 285.257 251.033 285.28C251.056 285.303 251.069 285.334 251.069 285.366C251.069 285.399 251.056 285.43 251.033 285.452C251.01 285.475 250.979 285.488 250.947 285.488L250.339 285.845C250.274 285.88 250.2 285.898 250.126 285.895C250.052 285.896 249.979 285.878 249.913 285.845L247.814 284.623C247.51 284.429 247.16 284.32 246.8 284.307C246.522 284.306 246.249 284.38 246.01 284.521C245.92 284.558 245.841 284.618 245.78 284.695C245.72 284.771 245.68 284.862 245.665 284.959C245.665 285.122 245.817 285.305 246.152 285.519L248.291 286.761C248.315 286.771 248.335 286.788 248.35 286.81C248.364 286.831 248.372 286.857 248.372 286.883C248.372 286.909 248.364 286.935 248.35 286.956C248.335 286.978 248.315 286.995 248.291 287.005L247.683 287.361C247.615 287.39 247.543 287.407 247.47 287.412C247.395 287.409 247.322 287.388 247.257 287.351L245.158 286.14C244.869 285.954 244.537 285.846 244.195 285.824C243.914 285.815 243.637 285.886 243.394 286.028C243.305 286.071 243.228 286.135 243.169 286.215C243.111 286.295 243.073 286.388 243.059 286.486C243.059 286.659 243.221 286.842 243.576 287.056L245.675 288.267C245.736 288.267 245.766 288.349 245.766 288.4C245.766 288.451 245.766 288.481 245.675 288.522L245.077 288.868C245.011 288.902 244.938 288.919 244.864 288.919C244.786 288.925 244.708 288.907 244.641 288.868L240.94 286.72C240.908 286.72 240.877 286.707 240.854 286.684C240.831 286.661 240.819 286.63 240.819 286.598C240.819 286.566 240.831 286.534 240.854 286.512C240.877 286.489 240.908 286.476 240.94 286.476L241.538 286.119C241.604 286.086 241.677 286.068 241.751 286.069C241.829 286.067 241.905 286.085 241.974 286.119L242.147 286.221Z" fill="#FAFAFA"/>
<path d="M249.041 282.933C248.948 282.857 248.875 282.759 248.828 282.648C248.787 282.519 248.787 282.38 248.828 282.251C248.869 282.08 248.952 281.922 249.072 281.793C249.243 281.597 249.449 281.434 249.68 281.315C249.941 281.159 250.22 281.036 250.511 280.948C250.799 280.866 251.095 280.818 251.393 280.806C251.69 280.796 251.987 280.826 252.275 280.897C252.571 280.972 252.854 281.088 253.117 281.243L255.459 282.597C255.52 282.597 255.55 282.679 255.55 282.73C255.55 282.78 255.55 282.811 255.459 282.852L254.861 283.198C254.793 283.237 254.716 283.255 254.638 283.249C254.563 283.254 254.489 283.236 254.425 283.198L254.161 283.045C254.184 283.131 254.189 283.221 254.175 283.308C254.161 283.396 254.129 283.48 254.08 283.554C253.92 283.794 253.7 283.988 253.441 284.114C253.217 284.243 252.979 284.346 252.732 284.419C252.5 284.482 252.262 284.519 252.022 284.531C251.797 284.534 251.572 284.51 251.353 284.46C251.143 284.417 250.941 284.341 250.755 284.236C250.39 284.022 250.227 283.778 250.278 283.513C250.387 283.166 250.608 282.865 250.907 282.658L251.981 281.783C251.779 281.657 251.538 281.606 251.302 281.64C251.067 281.67 250.839 281.746 250.633 281.864C250.533 281.914 250.446 281.988 250.379 282.078C250.34 282.143 250.315 282.216 250.309 282.292C250.324 282.331 250.324 282.375 250.309 282.414C250.285 282.454 250.25 282.486 250.207 282.506L249.467 282.933C249.411 282.964 249.348 282.981 249.284 282.984C249.244 283.004 249.198 283.01 249.154 283C249.11 282.991 249.07 282.968 249.041 282.933ZM252.61 283.473C252.764 283.39 252.902 283.28 253.016 283.147C253.097 283.055 253.15 282.942 253.168 282.821C253.177 282.771 253.175 282.72 253.163 282.671C253.151 282.622 253.128 282.576 253.097 282.536C253.036 282.436 252.948 282.355 252.843 282.302L252.762 282.251L251.88 282.994C251.742 283.083 251.633 283.211 251.566 283.361C251.566 283.452 251.566 283.544 251.718 283.615C251.852 283.663 251.999 283.663 252.133 283.615C252.297 283.587 252.457 283.539 252.61 283.473Z" fill="#FAFAFA"/>
<path d="M251.91 278.342C251.978 278.303 252.056 278.285 252.133 278.291C252.208 278.286 252.282 278.303 252.346 278.342L252.965 278.698C252.989 278.708 253.009 278.725 253.024 278.747C253.038 278.769 253.046 278.794 253.046 278.82C253.046 278.846 253.038 278.872 253.024 278.894C253.009 278.915 252.989 278.932 252.965 278.943L252.286 279.34C252.218 279.379 252.14 279.397 252.063 279.39C251.988 279.396 251.914 279.378 251.85 279.34L251.231 278.983C251.199 278.983 251.168 278.97 251.145 278.947C251.122 278.925 251.109 278.893 251.109 278.861C251.109 278.829 251.122 278.798 251.145 278.775C251.168 278.752 251.199 278.739 251.231 278.739L251.91 278.342ZM257.527 281.396C257.551 281.408 257.571 281.426 257.584 281.448C257.598 281.471 257.605 281.497 257.605 281.523C257.605 281.55 257.598 281.575 257.584 281.598C257.571 281.62 257.551 281.639 257.527 281.65L256.919 281.997C256.853 282.03 256.78 282.048 256.706 282.047C256.638 282.043 256.572 282.022 256.513 281.986L252.803 279.838C252.777 279.829 252.756 279.812 252.739 279.791C252.723 279.769 252.713 279.743 252.711 279.716C252.711 279.716 252.711 279.625 252.803 279.584L253.411 279.238C253.476 279.202 253.55 279.184 253.624 279.187C253.698 279.187 253.771 279.204 253.837 279.238L257.527 281.396Z" fill="#FAFAFA"/>
<path d="M259.657 280.154C259.682 280.164 259.704 280.18 259.72 280.202C259.736 280.223 259.746 280.249 259.748 280.276C259.745 280.303 259.734 280.328 259.718 280.35C259.702 280.371 259.681 280.388 259.657 280.398L259.048 280.755C258.982 280.788 258.909 280.805 258.835 280.805C258.761 280.805 258.689 280.788 258.622 280.755L253.401 277.701C253.377 277.691 253.356 277.674 253.342 277.652C253.327 277.63 253.32 277.605 253.32 277.579C253.32 277.552 253.327 277.527 253.342 277.505C253.356 277.483 253.377 277.466 253.401 277.456L254.009 277.11C254.075 277.077 254.148 277.06 254.222 277.06C254.296 277.06 254.369 277.077 254.435 277.11L259.657 280.154Z" fill="#FAFAFA"/>
<path d="M228.125 304.382L306.975 258.674C307.452 258.396 307.988 258.234 308.539 258.201C309.09 258.167 309.641 258.263 310.148 258.481C310.929 258.929 310.777 259.753 309.803 260.313L230.943 306.032C230.468 306.31 229.934 306.473 229.384 306.506C228.835 306.54 228.286 306.443 227.78 306.225C226.969 305.797 227.111 304.973 228.125 304.382Z" fill="#FAFAFA"/>
<path d="M233.63 307.63L312.48 261.911C312.958 261.634 313.493 261.472 314.044 261.438C314.595 261.404 315.146 261.5 315.654 261.718C316.434 262.166 316.282 262.991 315.309 263.561L236.449 309.269C235.974 309.55 235.44 309.714 234.89 309.747C234.34 309.781 233.79 309.683 233.285 309.462C232.505 309.014 232.657 308.19 233.63 307.63Z" fill="#FAFAFA"/>
<path d="M116.546 337.294L75.3622 313.422L259.859 206.471L301.885 229.854L116.546 337.294Z" fill="#E0E0E0"/>
<path d="M105.444 188.452L280.847 86.7336L287.873 90.8056C288.834 91.4357 289.633 92.2835 290.207 93.2808C290.781 94.2782 291.114 95.397 291.178 96.5472V226.505C291.112 227.655 290.779 228.773 290.205 229.77C289.631 230.767 288.832 231.616 287.873 232.247L119.03 330.128C118.008 330.65 116.877 330.922 115.73 330.922C114.583 330.922 113.452 330.65 112.43 330.128L108.709 327.98C107.751 327.347 106.955 326.499 106.383 325.502C105.81 324.505 105.479 323.387 105.414 322.238L105.444 188.452Z" fill="#F8ED41"/>
<path opacity="0.2" d="M105.444 188.452L280.847 86.7336L287.873 90.8056C288.834 91.4357 289.633 92.2835 290.207 93.2808C290.781 94.2782 291.114 95.397 291.178 96.5472V226.505C291.112 227.655 290.779 228.773 290.205 229.77C289.631 230.767 288.832 231.616 287.873 232.247L119.03 330.128C118.008 330.65 116.877 330.922 115.73 330.922C114.583 330.922 113.452 330.65 112.43 330.128L108.709 327.98C107.751 327.347 106.955 326.499 106.383 325.502C105.81 324.505 105.479 323.387 105.414 322.238L105.444 188.452Z" fill="black"/>
<path d="M279.904 75.332L280.624 74.935L277.896 73.296C277.663 73.1602 277.419 73.0445 277.166 72.9499L199.949 44.2524C198.887 43.9033 197.743 43.8982 196.679 44.2381C195.614 44.5779 194.683 45.2453 194.017 46.1459L107.644 172.806C106.294 174.982 105.526 177.472 105.414 180.033V188.452L108.091 190.01L280.847 86.7336V78.3249C280.82 77.2579 280.493 76.2202 279.904 75.332Z" fill="#F8ED41"/>
<path opacity="0.15" d="M197.596 46.7568C197.251 47.0269 196.95 47.3498 196.704 47.7137L110.311 174.363C109.603 175.486 109.063 176.707 108.709 177.987L106.022 176.43C106.22 175.776 106.454 175.134 106.722 174.506C106.833 174.241 106.955 173.997 107.087 173.742C107.087 173.742 107.087 173.661 107.158 173.62C107.291 173.355 107.444 173.1 107.614 172.857L194.017 46.1561C194.146 45.9664 194.292 45.7891 194.453 45.6268C194.598 45.4764 194.75 45.3337 194.91 45.1992L197.596 46.7568Z" fill="black"/>
<path opacity="0.15" d="M280.593 74.9044C280.358 74.7632 280.11 74.644 279.853 74.5481L202.625 45.81C201.77 45.5217 200.855 45.4573 199.968 45.623C199.081 45.7886 198.251 46.1789 197.556 46.7567L194.869 45.1992C195.566 44.6256 196.397 44.2381 197.283 44.0726C198.169 43.9071 199.083 43.9689 199.939 44.2524L277.156 72.9804C277.41 73.0763 277.654 73.1956 277.886 73.3367L280.593 74.9044Z" fill="black"/>
<g opacity="0.1">
<path opacity="0.1" d="M107.178 173.569C107.321 173.307 107.476 173.052 107.644 172.806C107.476 173.052 107.321 173.307 107.178 173.569Z" fill="black"/>
<path opacity="0.1" d="M194.453 45.6268C194.599 45.4738 194.755 45.3309 194.92 45.1992C194.755 45.3309 194.599 45.4738 194.453 45.6268Z" fill="black"/>
<path opacity="0.1" d="M106.022 176.43C106.216 175.774 106.449 175.132 106.722 174.506C106.454 175.134 106.22 175.776 106.022 176.43Z" fill="black"/>
<path opacity="0.1" d="M106.742 174.455C106.864 174.19 106.985 173.936 107.117 173.691C106.985 173.936 106.864 174.19 106.742 174.455Z" fill="black"/>
<path opacity="0.2" d="M107.117 173.693L107.179 173.569L107.117 173.693Z" fill="black"/>
<path opacity="0.2" d="M194.017 46.1459C194.152 45.9638 194.297 45.7904 194.453 45.6267C194.294 45.7877 194.149 45.9614 194.017 46.1459Z" fill="black"/>
</g>
<path d="M196.694 47.7036L110.321 174.363C108.972 176.544 108.204 179.037 108.091 181.601V190.01L283.554 88.2913V79.8826C283.498 78.7316 283.119 77.6199 282.461 76.676C281.802 75.7321 280.891 74.9945 279.833 74.5483L202.625 45.8102C201.564 45.4641 200.421 45.4607 199.357 45.8003C198.293 46.1399 197.362 46.8055 196.694 47.7036Z" fill="#F8ED41"/>
<path d="M283.554 79.8826C283.521 78.8261 283.195 77.7999 282.611 76.9202L108.709 177.987C108.35 179.153 108.149 180.361 108.111 181.581V189.99L283.554 88.2912V79.8826Z" fill="#F8ED41"/>
<path d="M276.051 44.1812C276.086 43.8288 276.028 43.4736 275.884 43.1505C275.74 42.8274 275.514 42.5475 275.23 42.3386L269.877 39.2337C269.551 39.0849 269.191 39.0254 268.835 39.0611C268.479 39.0969 268.139 39.2267 267.849 39.4373L123.948 122.862C123.117 123.402 122.426 124.132 121.93 124.992C121.435 125.852 121.15 126.818 121.099 127.81V300.87C121.064 301.225 121.122 301.583 121.268 301.908C121.414 302.233 121.642 302.514 121.93 302.723L127.273 305.777C127.598 305.927 127.957 305.988 128.313 305.954C128.669 305.92 129.01 305.792 129.301 305.583L273.273 222.107C274.1 221.562 274.789 220.83 275.282 219.969C275.775 219.107 276.059 218.142 276.112 217.15L276.051 44.1812Z" fill="#DCDDA1"/>
<path d="M276.051 44.1812C276.086 43.8288 276.028 43.4736 275.884 43.1505C275.74 42.8274 275.514 42.5475 275.23 42.3386L269.877 39.2337C269.551 39.0849 269.191 39.0254 268.835 39.0611C268.479 39.0969 268.139 39.2267 267.849 39.4373L123.948 122.862C123.117 123.402 122.426 124.132 121.93 124.992C121.435 125.852 121.15 126.818 121.099 127.81V300.87C121.064 301.225 121.122 301.583 121.268 301.908C121.414 302.233 121.642 302.514 121.93 302.723L127.273 305.777C127.598 305.927 127.957 305.988 128.313 305.954C128.669 305.92 129.01 305.792 129.301 305.583L273.273 222.107C274.1 221.562 274.789 220.83 275.282 219.969C275.775 219.107 276.059 218.142 276.112 217.15L276.051 44.1812Z" fill="#F3F4D3"/>
<path d="M129.291 305.624L273.263 222.148C274.09 221.603 274.778 220.871 275.272 220.009C275.765 219.148 276.049 218.182 276.102 217.19V44.1811C276.102 42.3589 274.834 41.6259 273.253 42.5319L129.342 126.008C128.513 126.552 127.823 127.285 127.328 128.146C126.834 129.007 126.547 129.973 126.493 130.966V304.026C126.442 305.797 127.75 306.53 129.291 305.624Z" fill="#DCDDA1"/>
<path d="M129.291 305.624L273.263 222.148C274.09 221.603 274.778 220.871 275.272 220.009C275.765 219.148 276.049 218.182 276.102 217.19V44.1811C276.102 42.3589 274.834 41.6259 273.253 42.5319L129.342 126.008C128.513 126.552 127.823 127.285 127.328 128.146C126.834 129.007 126.547 129.973 126.493 130.966V304.026C126.442 305.797 127.75 306.53 129.291 305.624Z" fill="#DCDDA1"/>
<path d="M126.432 303.965C126.408 304.288 126.455 304.613 126.571 304.916C126.687 305.218 126.868 305.492 127.101 305.716L121.94 302.723C121.652 302.516 121.422 302.237 121.275 301.914C121.127 301.591 121.066 301.234 121.099 300.88V127.82C121.129 126.826 121.419 125.857 121.94 125.01L127.273 128.065C126.753 128.918 126.463 129.894 126.432 130.895V303.965Z" fill="#F3F4D3"/>
<path d="M126.432 303.965C126.408 304.288 126.455 304.613 126.571 304.916C126.687 305.218 126.868 305.492 127.101 305.716L121.94 302.723C121.652 302.516 121.422 302.237 121.275 301.914C121.127 301.591 121.066 301.234 121.099 300.88V127.82C121.129 126.826 121.419 125.857 121.94 125.01L127.273 128.065C126.753 128.918 126.463 129.894 126.432 130.895V303.965Z" fill="#F3F4D3"/>
<path opacity="0.05" d="M126.432 303.965C126.408 304.288 126.455 304.613 126.571 304.916C126.687 305.218 126.868 305.492 127.101 305.716L121.94 302.723C121.652 302.516 121.422 302.237 121.275 301.914C121.127 301.591 121.066 301.234 121.099 300.88V127.82C121.129 126.826 121.419 125.857 121.94 125.01L127.273 128.065C126.753 128.918 126.463 129.894 126.432 130.895V303.965Z" fill="black"/>
<path d="M178.961 173.172C178.323 189.277 179.407 223.777 179.407 223.777C179.407 223.777 196.4 228.928 207.958 227.004C219.517 225.08 244.225 207.509 244.225 207.509L240.099 170.169L178.961 173.172Z" fill="#37474F"/>
<path d="M218.422 223.187L221.18 196.892C232.008 190.407 235.536 181.428 235.536 181.428C225.681 194.387 215.39 192.29 215.39 192.29V224.581C216.384 224.154 217.388 223.685 218.422 223.187Z" fill="#263238"/>
<path d="M246.892 124.665C249.639 110.657 250.886 92.0885 238.781 88.6171C235.617 87.7314 227.567 88.3422 227.567 88.3422L214.478 89.0039C207.188 89.9303 196.958 91.3861 194.281 92.0579C187.255 93.7987 185.156 105.292 182.013 130.884C179.985 146.887 178.353 159.389 178.353 174.954C191.219 186.539 231.41 181.978 240.555 174.445C240.91 156.772 241.863 150.237 246.892 124.665Z" fill="#455A64"/>
<path d="M212.227 84.2295C212.095 86.7847 215.035 91.101 219.517 94.1347C223.998 97.1683 227.871 98.3899 228.368 99.6624C226.239 100.059 224.312 101.118 222.731 104.752C221.21 108.254 221.23 108.366 216.049 104.752C210.868 101.139 206.235 92.8316 206.245 90.0627C206.255 87.2937 210.3 81.9187 212.328 82.3971L212.227 84.2295Z" fill="#37474F"/>
<path d="M228.368 99.6624C229.879 97.9929 231.318 93.8089 231.501 92.007C231.683 90.2052 232.17 85.4409 232.17 85.4409C232.875 85.6352 233.502 86.0443 233.965 86.6116C234.522 87.4566 237.28 93.1777 237.189 96.3742C237.098 99.5708 236.347 103.887 235.273 105.709C234.198 107.532 233.478 104.315 232.778 103.073C231.866 101.454 230.609 99.7031 228.368 99.6624Z" fill="#37474F"/>
<path d="M226.32 103.327C226.32 103.327 226.563 114.861 225.509 121C227.779 121.359 230.095 121.297 232.342 120.816C232.342 120.816 230.588 122.985 224.171 121.987C224.171 121.987 226.097 109.944 226.32 103.327Z" fill="#37474F"/>
<path d="M253.523 50.0449C253.4 45.3904 251.518 40.9571 248.258 37.6458C244.997 34.3345 240.604 32.3935 235.97 32.2172C231.336 32.041 226.809 33.6426 223.308 36.6968C219.808 39.7509 217.597 44.0285 217.124 48.6605L208.861 42.7561C207.882 42.6545 206.892 42.7787 205.968 43.1192C205.044 43.4597 204.209 44.0074 203.528 44.7208C201.267 47.1233 202.656 54.5038 205.637 61.7011C205.637 61.7011 208.628 74.8536 209.773 76.9711C210.545 78.2957 211.793 79.2724 213.261 79.6993L212.916 71.7284L246.05 69.3361L242.775 66.9947C246.016 65.5275 248.76 63.1418 250.669 60.1307C252.578 57.1196 253.57 53.6142 253.523 50.0449Z" fill="#263238"/>
<path d="M212.47 62.1999C211.456 62.8514 210.442 60.6321 208.567 59.492C206.945 58.474 203.305 56.8146 200.902 60.8561C198.316 65.203 203.011 71.2092 206.296 72.4511C211.162 74.2835 212.906 70.4151 212.906 70.4151L211.892 90.7752C218.513 102.889 238.182 102.116 231.491 91.9662L232.302 84.1073C232.302 84.1073 237.534 84.83 240.078 84.3923C244.316 83.6797 246.932 80.3203 248.189 75.6477C250.146 68.2061 250.846 62.21 248.869 47.673C246.719 31.7311 228.216 31.8431 218.32 38.2972C208.425 44.7513 212.47 62.1999 212.47 62.1999Z" fill="#FFA8A7"/>
<path d="M252.894 32.8306C251.501 32.1555 249.922 31.9726 248.413 32.3114C248.515 31.1744 248.257 30.034 247.676 29.0526C247.096 28.0711 246.222 27.2985 245.178 26.8447C244.072 26.3081 242.833 26.1088 241.615 26.2717C240.396 26.4345 239.253 26.9523 238.324 27.7609C238.77 26.1423 237.31 24.4932 235.668 24.1369C233.999 23.9277 232.306 24.2069 230.791 24.9411C228.459 25.8369 226.168 26.8346 223.805 27.6286C219.649 29.0233 215.218 29.8173 211.446 32.0875C210.532 32.5986 209.732 33.2913 209.094 34.1235C208.309 35.354 207.952 36.8111 208.08 38.2667C208.106 38.7468 208.174 39.2237 208.283 39.6919C207.992 39.3768 207.649 39.115 207.269 38.9182C206.845 38.6988 206.381 38.5682 205.906 38.5343C205.43 38.5004 204.953 38.5639 204.502 38.721C204.052 38.8781 203.638 39.1255 203.286 39.4482C202.933 39.7708 202.65 40.162 202.453 40.5979L208.729 43.8555C208.567 45.128 208.415 46.3904 208.283 47.6629C207.948 51.0223 207.269 54.9416 208.06 58.2806C208.101 58.6818 208.24 59.0665 208.465 59.4004C209.672 60.333 210.767 61.4022 211.73 62.5868C212.217 63.1772 212.795 64.1341 213.585 64.3683C214.009 64.4771 214.456 64.4351 214.852 64.2495C215.248 64.0638 215.567 63.746 215.755 63.3503C215.88 62.865 215.904 62.3591 215.826 61.864L215.218 55.6542C215.115 55.1085 215.147 54.546 215.309 54.0152C215.68 53.3617 216.202 52.8068 216.83 52.3966C217.549 51.7752 218.136 51.0154 218.558 50.1621C218.979 49.3088 219.226 48.3794 219.284 47.4287C219.274 46.8303 219.332 46.2327 219.456 45.6472C219.588 45.2095 219.932 44.5274 220.47 44.5274C221.484 44.5274 226.685 45.6676 228.003 45.8508C234.877 46.7976 242.258 46.9808 248.281 43.5909C250.643 42.2776 254.628 39.5189 255.033 36.6074C255.09 35.8358 254.917 35.0646 254.536 34.392C254.155 33.7195 253.583 33.1759 252.894 32.8306Z" fill="#263238"/>
<path d="M232.312 84.148C232.312 84.148 222.812 82.3766 219.466 80.6562C217.506 79.6637 215.889 78.1032 214.822 76.177C215.356 78.1137 216.269 79.9238 217.509 81.5011C219.973 84.5552 232.048 86.6828 232.048 86.6828L232.312 84.148Z" fill="#F28F8F"/>
<path d="M231.906 60.4896C231.898 60.8413 231.788 61.1828 231.588 61.4716C231.388 61.7604 231.107 61.9837 230.782 62.1137C230.456 62.2436 230.1 62.2745 229.757 62.2025C229.414 62.1305 229.1 61.9587 228.854 61.7086C228.607 61.4585 228.44 61.1411 228.372 60.7961C228.304 60.451 228.339 60.0935 228.472 59.7681C228.605 59.4428 228.83 59.1639 229.12 58.9664C229.41 58.7688 229.751 58.6613 230.102 58.6572C230.34 58.6586 230.576 58.707 230.795 58.7998C231.015 58.8926 231.214 59.028 231.382 59.1981C231.55 59.3683 231.682 59.5699 231.772 59.7915C231.862 60.0131 231.908 60.2503 231.906 60.4896Z" fill="#263238"/>
<path d="M228.439 53.832L224.272 55.868C224.013 55.2934 223.984 54.6407 224.192 54.0455C224.4 53.4503 224.828 52.9582 225.387 52.6715C225.662 52.5399 225.961 52.4657 226.266 52.4531C226.57 52.4405 226.874 52.4899 227.16 52.5983C227.445 52.7067 227.705 52.8719 227.925 53.0839C228.145 53.2959 228.32 53.5504 228.439 53.832Z" fill="#263238"/>
<path d="M228.49 71.647L236.033 74.365C235.877 74.8741 235.621 75.3464 235.279 75.7536C234.937 76.1608 234.517 76.4947 234.044 76.7351C233.57 76.9755 233.054 77.1177 232.524 77.153C231.995 77.1883 231.464 77.116 230.964 76.9406C229.951 76.5488 229.128 75.7794 228.667 74.7929C228.206 73.8065 228.143 72.6794 228.49 71.647Z" fill="#B16668"/>
<path d="M233.255 77.0321C233.114 76.0006 232.572 75.0672 231.747 74.4358C230.923 73.8044 229.883 73.5264 228.855 73.6625C228.69 73.689 228.528 73.7264 228.368 73.7745C228.49 74.4844 228.794 75.1501 229.251 75.7054C229.708 76.2608 230.302 76.6865 230.974 76.9405C231.707 77.2036 232.503 77.2356 233.255 77.0321Z" fill="#F28F8F"/>
<path d="M248.22 55.2163L244.164 53.0989C244.296 52.8301 244.48 52.5912 244.707 52.3966C244.933 52.202 245.197 52.0559 245.482 51.9673C245.767 51.8786 246.067 51.8493 246.363 51.8811C246.659 51.9129 246.946 52.0051 247.206 52.1521C247.738 52.4308 248.141 52.9064 248.331 53.4782C248.52 54.05 248.48 54.6733 248.22 55.2163Z" fill="#263238"/>
<path d="M246.172 60.1944C246.162 60.5447 246.05 60.8843 245.849 61.1713C245.649 61.4582 245.369 61.6799 245.045 61.8089C244.721 61.9379 244.365 61.9685 244.024 61.897C243.682 61.8254 243.369 61.6549 243.123 61.4064C242.877 61.158 242.709 60.8425 242.639 60.4991C242.57 60.1557 242.602 59.7994 242.733 59.4743C242.863 59.1492 243.085 58.8696 243.372 58.6701C243.659 58.4706 243.998 58.3599 244.347 58.3518C244.588 58.3505 244.826 58.3973 245.049 58.4895C245.272 58.5818 245.474 58.7176 245.644 58.8891C245.814 59.0606 245.948 59.2644 246.039 59.4885C246.129 59.7126 246.175 59.9526 246.172 60.1944Z" fill="#263238"/>
<path d="M237.098 59.0747L237.452 70.6392L244.235 69.0511L237.098 59.0747Z" fill="#F28F8F"/>
<path d="M286.737 228.236C286.687 228.331 286.626 228.42 286.555 228.5L213.444 205.219C210.665 203.985 207.535 203.8 204.631 204.698C201.727 205.595 199.244 207.516 197.637 210.105L119.476 326.778L116.597 328.427C116.274 328.653 115.899 328.794 115.508 328.837C115.116 328.879 114.72 328.823 114.356 328.672L194.666 208.456C196.276 205.867 198.761 203.947 201.666 203.048C204.571 202.149 207.701 202.33 210.483 203.559L286.737 228.236Z" fill="#F8ED41"/>
<path d="M190.438 221.558L190.621 221.395L119.466 326.778L116.597 328.438C116.275 328.662 115.903 328.802 115.514 328.846C115.124 328.891 114.73 328.838 114.366 328.692L187.63 219.888L190.438 221.558Z" fill="#F8ED41"/>
<path d="M286.748 228.236C286.7 228.332 286.638 228.422 286.565 228.5L213.433 205.219C210.657 203.981 207.527 203.794 204.624 204.692C201.721 205.591 199.239 207.513 197.637 210.105L194.747 208.415C196.364 205.845 198.847 203.945 201.743 203.061C204.64 202.177 207.756 202.368 210.524 203.6L286.748 228.236Z" fill="#EAD93F"/>
<path d="M291.128 95.692C290.976 94.7452 290.469 94.4806 289.83 94.9285C289.503 95.1713 289.218 95.4672 288.988 95.804L288.613 96.313L216.465 206.461L205.687 221.527C204.998 222.41 204.08 223.085 203.033 223.478C201.987 223.871 200.853 223.968 199.756 223.756L190.459 221.537L119.487 195.293C119.015 195.181 118.525 195.163 118.047 195.242C117.858 195.278 117.675 195.336 117.499 195.415L120.176 193.868L188.248 218.911L197.211 222.117C198.308 222.329 199.442 222.232 200.489 221.839C201.535 221.446 202.453 220.771 203.142 219.888L213.91 204.832L286.423 94.1752C286.645 93.8723 286.924 93.6163 287.244 93.4218L280.968 89.7876L283.594 88.2708L287.944 90.8056C288.773 91.3646 289.483 92.0852 290.029 92.9246C290.576 93.7639 290.95 94.705 291.128 95.692Z" fill="#F8ED41"/>
<path d="M216.445 206.471L205.677 221.537C204.983 222.415 204.065 223.086 203.02 223.481C201.976 223.875 200.844 223.978 199.746 223.777L190.438 221.558L190.621 221.395L191.077 220.682L197.161 222.138C198.258 222.349 199.392 222.252 200.438 221.859C201.484 221.466 202.402 220.791 203.092 219.908L213.768 205.005L216.445 206.471Z" fill="#F8ED41"/>
<path d="M287.944 90.7953L283.605 88.291L280.968 89.8078L287.244 93.4421C286.925 93.6378 286.646 93.8936 286.423 94.1954L213.869 204.842L213.768 204.995L216.445 206.461L288.603 96.3332L288.968 95.814C289.203 95.4815 289.487 95.1864 289.81 94.9386C290.458 94.4906 290.955 94.7553 291.117 95.7122C290.942 94.7216 290.571 93.7762 290.026 92.9318C289.481 92.0873 288.773 91.3609 287.944 90.7953Z" fill="#E8D83F"/>
<path d="M120.896 197.431L105.444 188.452V322.238C105.509 323.387 105.841 324.504 106.413 325.501C106.985 326.498 107.782 327.347 108.739 327.979L112.46 330.127C113.483 330.649 114.614 330.922 115.761 330.922C116.908 330.922 118.038 330.649 119.061 330.127L120.926 329.058L120.896 197.431Z" fill="#F8ED41"/>
<path opacity="0.15" d="M120.896 197.431L105.444 188.452V322.238C105.509 323.387 105.841 324.504 106.413 325.501C106.985 326.498 107.782 327.347 108.739 327.979L112.46 330.127C113.483 330.649 114.614 330.922 115.761 330.922C116.908 330.922 118.038 330.649 119.061 330.127L120.926 329.058L120.896 197.431Z" fill="black"/>
<path d="M291.199 96.547V226.505C291.159 227.691 290.81 228.847 290.185 229.854C289.694 230.705 289.035 231.447 288.248 232.033L288.116 232.104C288.035 232.155 287.984 232.206 287.903 232.247L119.04 330.117C118.718 330.345 118.345 330.488 117.953 330.534C117.562 330.58 117.166 330.528 116.8 330.382C116.516 330.219 116.275 329.989 116.099 329.713C115.922 329.436 115.815 329.121 115.786 328.794C115.775 328.597 115.775 328.4 115.786 328.203V198.245C115.757 197.78 115.841 197.314 116.031 196.889C116.221 196.463 116.51 196.09 116.875 195.802C117.24 195.514 117.669 195.318 118.126 195.233C118.583 195.148 119.053 195.176 119.497 195.313L190.469 221.558L199.766 223.777C200.863 223.988 201.997 223.891 203.044 223.498C204.09 223.105 205.008 222.43 205.697 221.547L216.475 206.481L288.623 96.3332L288.998 95.8242C290.195 94.114 291.199 94.4295 291.199 96.547Z" fill="#F8ED41"/>
<path d="M287.944 232.247C288.023 232.212 288.095 232.164 288.157 232.104L288.289 232.033C289.075 231.453 289.731 230.714 290.215 229.864C290.833 228.872 291.183 227.735 291.229 226.566L216.495 206.481L266.541 244.646L287.944 232.247Z" fill="#F8ED41"/>
<path d="M287.944 232.247C288.023 232.212 288.095 232.164 288.157 232.104L288.289 232.033C289.075 231.453 289.731 230.714 290.215 229.864C290.833 228.872 291.183 227.735 291.229 226.566L216.495 206.481L266.541 244.646L287.944 232.247Z" fill="#CEBC3A"/>
<path d="M115.735 328.214C115.684 328.636 115.752 329.064 115.931 329.449C116.111 329.834 116.394 330.161 116.749 330.392C117.114 330.543 117.51 330.599 117.902 330.555C118.294 330.51 118.668 330.367 118.99 330.138L177.126 296.442L190.398 221.568L115.735 326.055V328.214Z" fill="#CCBA3A"/>
<path d="M197.607 210.095L116.759 330.392C116.405 330.16 116.122 329.833 115.943 329.448C115.764 329.063 115.695 328.636 115.745 328.214V326.056L194.727 208.456L197.607 210.095Z" fill="#DDCD3C"/>
<path d="M290.164 229.865C289.68 230.714 289.024 231.453 288.238 232.033L288.106 232.104L119.041 330.127C118.719 330.357 118.345 330.5 117.953 330.545C117.561 330.589 117.164 330.533 116.8 330.382L197.657 210.064C199.277 207.464 201.776 205.537 204.695 204.636C207.615 203.735 210.76 203.92 213.555 205.158L290.164 229.865Z" fill="#F8ED41"/>
<path opacity="0.15" d="M106.022 176.43L108.709 177.987C108.333 179.156 108.125 180.373 108.091 181.601V190L105.444 188.442V180.033C105.471 178.811 105.666 177.599 106.022 176.43Z" fill="black"/>
<path d="M120.135 193.888L117.459 195.436L114.752 193.868L108.08 190.01L110.676 188.462L120.135 193.888Z" fill="#F8ED41"/>
<path opacity="0.1" d="M120.257 193.939L110.676 188.462L108.08 190.01L114.752 193.868L117.459 195.436C117.621 195.362 117.791 195.307 117.966 195.273C118.447 195.189 118.941 195.206 119.416 195.324L124.81 197.36L186.788 220.265L187.802 218.829L120.257 193.939Z" fill="black"/>
<path d="M194.251 92.0476C185.653 92.6686 179.752 94.725 174.206 108.101C170.627 116.744 156.575 147.804 155.216 152.944C153.614 158.981 150.025 204.862 150.025 204.862L158.237 207.916C158.237 207.916 155.419 217.781 153.046 223.41C150.309 229.915 163.682 228.5 167.971 222.637C172.259 216.773 175.19 208.833 172.848 206.054C170.915 203.792 168.727 201.762 166.328 200.007L175.321 159.103L194.17 118.882C194.17 118.882 203.619 99.1024 194.251 92.0476Z" fill="#FFA8A7"/>
<path d="M166.328 200.007C163.794 198.529 160.933 197.707 158.004 197.615C160.855 196.808 163.873 196.808 166.724 197.615L166.328 200.007Z" fill="#F28F8F"/>
<path d="M196.207 91.6202C191.371 91.6202 182.358 91.3657 176.518 101.953C170.678 112.54 162.425 132.666 162.425 132.666C162.425 132.666 165.862 141.136 184.233 142.907L198.306 112.845C198.306 112.845 201.764 99.0821 196.207 91.6202Z" fill="#37474F"/>
<path d="M258.541 98.5936C265.801 104.335 277.592 113.375 283.321 116.989C287.65 111.726 295.619 101.088 297.515 98.7564C299.979 95.7941 307.735 90.9484 307.735 90.9484L310.665 102.757C310.665 102.757 295.954 130.009 290.621 135.058C285.004 140.372 280.938 138.173 269.958 133.114C259.586 128.34 248.321 122.425 248.321 122.425C250.552 102.615 249.041 91.8849 239.612 88.5459C245.969 89.3298 252.458 93.7784 258.541 98.5936Z" fill="#FFA8A7"/>
<path d="M277.491 112.998C273.699 114.016 265.851 125.214 267.291 132.34L247.307 122.425C249.731 108.753 250.248 91.885 238.75 88.6172C237.646 88.3553 236.518 88.2119 235.384 88.1896C241.113 87.6195 244.854 87.7926 250.856 92.3227C256.858 96.8528 277.491 112.998 277.491 112.998Z" fill="#37474F"/>
<path d="M283.311 116.989C280.441 119.513 279.519 124.054 278.961 125.856C278.732 122.331 279.681 118.831 281.658 115.91L283.311 116.989Z" fill="#F28F8F"/>
<path d="M311.121 77.7449L317.965 73.571C317.965 73.571 318.756 110.677 318.776 111.878C318.962 112.818 319.472 113.661 320.216 114.261L313.372 118.434C312.632 117.832 312.123 116.99 311.933 116.052C311.912 114.841 311.121 77.7449 311.121 77.7449Z" fill="#37474F"/>
<path d="M318.3 89.0344C318.3 89.0344 320.267 89.5027 321.017 92.5669C321.767 95.6311 322.142 101.485 320.388 103.409C318.634 105.333 316.252 106.178 314.66 105.445C311.679 104.152 312.632 98.0946 314.974 96.6898C318.776 94.4604 318.32 91.9968 318.32 91.9968L318.3 89.0344Z" fill="#FFA8A7"/>
<path d="M302.696 77.8569L305.738 81.5319L306.275 107.695L303.233 112.785L313.423 118.414C312.66 117.832 312.145 116.981 311.983 116.032L311.263 82.5601L302.696 77.8569Z" fill="#455A64"/>
<path d="M303.183 112.805L303.223 114.413L313.403 120.033L313.372 118.424L303.183 112.805Z" fill="#EFECB4"/>
<path d="M313.403 120.033L320.257 115.869L320.216 114.26L313.372 118.424L313.403 120.033Z" fill="#EFECB4"/>
<path opacity="0.1" d="M313.403 120.033L320.257 115.869L320.216 114.26L313.372 118.424L313.403 120.033Z" fill="black"/>
<path d="M304.683 59.6958C303.355 59.3598 301.814 59.9197 300.384 61.4569V61.518C298.935 63.253 297.915 65.3071 297.405 67.513C296.896 69.7189 296.913 72.0143 297.454 74.2125V74.2837C298.083 76.3197 299.259 77.5413 300.638 77.7856L306.559 79.2108L310.158 61.0802L304.683 59.6958Z" fill="#DCDDA1"/>
<path d="M304.683 59.6958C303.355 59.3598 301.814 59.9197 300.384 61.4569V61.518C298.935 63.253 297.915 65.3071 297.405 67.513C296.896 69.7189 296.913 72.0143 297.454 74.2125V74.2837C298.083 76.3197 299.259 77.5413 300.638 77.7856L306.559 79.2108L310.158 61.0802L304.683 59.6958Z" fill="#DCDDA1"/>
<path opacity="0.05" d="M300.607 77.7958L306.529 79.221L307.735 73.1842L296.957 70.6799C296.92 71.8736 297.071 73.0658 297.404 74.2124V74.2837C298.083 76.3502 299.229 77.5514 300.607 77.7958Z" fill="black"/>
<path d="M316.688 60.2149C315.187 59.8688 313.484 60.4287 311.862 61.9455C311.689 62.0982 311.527 62.2713 311.355 62.4444C311.182 62.6174 310.969 62.8821 310.777 63.1162C310.464 63.5108 310.173 63.922 309.905 64.348C309.397 65.157 308.959 66.0085 308.597 66.893C307.585 69.3617 307.085 72.0115 307.127 74.6807C307.143 75.9324 307.33 77.1759 307.684 78.3761C308.414 80.8091 309.773 82.275 311.375 82.7026L305.738 81.4403C304.674 81.1336 303.706 80.5594 302.925 79.772C302.145 78.9845 301.577 78.01 301.277 76.9407C300.937 75.7929 300.75 74.6052 300.719 73.4082C300.658 70.6846 301.158 67.9778 302.189 65.4577C302.551 64.571 302.992 63.7191 303.507 62.9126C303.772 62.4843 304.063 62.0729 304.379 61.6809C304.562 61.4467 304.754 61.2228 304.947 61.009C305.14 60.7952 305.292 60.6629 305.464 60.5102C306.195 59.8459 307.067 59.3583 308.014 59.0848C308.961 58.8113 309.958 58.7591 310.929 58.9323H311.081L311.284 58.9832L316.688 60.2149Z" fill="#BCBB8B"/>
<path opacity="0.1" d="M305.738 81.4402C304.674 81.1336 303.706 80.5594 302.925 79.7719C302.145 78.9845 301.577 78.01 301.277 76.9407C300.937 75.7929 300.75 74.6052 300.719 73.4082L307.117 74.7316C307.132 75.9833 307.32 77.2267 307.674 78.4269C308.404 80.86 309.763 82.3259 311.365 82.7534L305.738 81.4402Z" fill="black"/>
<path d="M320.51 64.582C322.031 69.5702 320.378 76.6962 316.84 80.5035C315.055 82.4173 313.129 83.1299 311.466 82.7227H311.375C309.773 82.2952 308.414 80.8293 307.684 78.3962C306.164 73.408 307.806 66.282 311.355 62.4645C313.119 60.571 315.035 59.8483 316.688 60.2351C318.34 60.6219 319.75 62.098 320.51 64.582Z" fill="#EAEAAC"/>
<path d="M320.51 64.582C322.031 69.5702 320.378 76.6962 316.84 80.5035C315.055 82.4173 313.129 83.1299 311.466 82.7227H311.375C309.773 82.2952 308.414 80.8293 307.684 78.3962C306.164 73.408 307.806 66.282 311.355 62.4645C313.119 60.571 315.035 59.8483 316.688 60.2351C318.34 60.6219 319.75 62.098 320.51 64.582Z" fill="#DCDDA1"/>
<path d="M343.992 55.9902C343.992 55.9902 337.371 62.4444 334.198 76.167C333.629 78.6312 333.226 81.1309 332.991 83.6493C332.149 92.9742 334.157 98.6038 334.157 98.6038C330.101 93.5647 325.346 88.495 319.111 85.4206C316.67 84.2281 314.169 83.1645 311.618 82.2343C310.108 81.878 308.86 80.4833 308.181 78.2437C307.731 76.6638 307.556 75.0175 307.664 73.3777C307.719 72.2764 307.875 71.1825 308.13 70.1099C308.692 67.413 309.935 64.9065 311.74 62.8312C313.332 61.1108 315.055 60.4084 316.576 60.7952C319.27 61.0842 321.978 61.2337 324.687 61.2431C331.653 61.1719 338.111 58.6981 343.992 55.9902Z" fill="#DCDDA1"/>
<path d="M343.992 55.9902C343.992 55.9902 337.371 62.4444 334.198 76.167C333.629 78.6312 333.226 81.1309 332.991 83.6493C332.149 92.9742 334.157 98.6038 334.157 98.6038C330.101 93.5647 325.346 88.495 319.111 85.4206C316.67 84.2281 314.169 83.1645 311.618 82.2343C310.108 81.878 308.86 80.4833 308.181 78.2437C307.731 76.6638 307.556 75.0175 307.664 73.3777C307.719 72.2764 307.875 71.1825 308.13 70.1099C308.692 67.413 309.935 64.9065 311.74 62.8312C313.332 61.1108 315.055 60.4084 316.576 60.7952C319.27 61.0842 321.978 61.2337 324.687 61.2431C331.653 61.1719 338.111 58.6981 343.992 55.9902Z" fill="#EFECB4"/>
<path opacity="0.05" d="M332.991 83.6391C332.149 92.964 334.157 98.5935 334.157 98.5935C330.101 93.5544 325.346 88.4847 319.111 85.4104C316.67 84.2178 314.169 83.1543 311.618 82.224C310.108 81.8677 308.86 80.4731 308.181 78.2335C307.731 76.6535 307.556 75.0072 307.664 73.3674C314.528 74.528 325.833 77.1035 332.991 83.6391Z" fill="black"/>
<path d="M362.211 62.709C363.764 68.3973 363.986 74.3689 362.86 80.1576C361.501 87.9249 358.196 95.509 353.461 100.599C345.026 109.659 335.272 107.389 331.673 95.509C330.838 92.6541 330.391 89.6989 330.345 86.7237C330.216 78.8701 332.083 71.1131 335.769 64.1851C336.276 63.2486 336.783 62.3527 337.391 61.4874C337.624 61.121 337.878 60.7748 338.121 60.4694C338.476 59.9706 338.841 59.4514 339.216 59.0341C339.591 58.6167 340.007 58.0975 340.413 57.6597C348.848 48.569 358.602 50.8391 362.211 62.709Z" fill="#BCBB8B"/>
<path opacity="0.1" d="M362.86 80.1575C361.502 87.9248 358.196 95.5089 353.461 100.599C345.026 109.659 335.272 107.389 331.673 95.5089C330.838 92.654 330.391 89.6988 330.345 86.7236C331.501 88.047 334.654 89.4722 335.303 87.5991C335.353 90.237 335.755 92.8562 336.499 95.3868C337.513 98.7971 339.125 101.312 341.102 102.676C341.922 103.247 342.864 103.615 343.853 103.751C344.841 103.888 345.847 103.788 346.79 103.459C349.173 102.603 351.296 101.145 352.954 99.2246C357.01 94.8981 359.93 88.4236 361.37 81.6845C361.37 81.7048 362.171 82.051 362.86 80.1575Z" fill="black"/>
<path d="M361.147 63.7576C362.738 68.9901 362.698 75.4748 361.37 81.7049C359.93 88.4441 356.98 94.9389 352.954 99.2451C351.296 101.165 349.173 102.624 346.79 103.48C345.847 103.808 344.841 103.908 343.853 103.772C342.864 103.636 341.922 103.267 341.102 102.696C339.125 101.332 337.533 98.8175 336.499 95.4072C335.755 92.8767 335.353 90.2574 335.303 87.6195C335.303 86.6015 335.303 85.5123 335.303 84.4434C335.407 82.5478 335.63 80.6607 335.972 78.7935C336.053 78.4066 336.124 78.0198 336.205 77.6431C336.337 77.0018 336.479 76.3604 336.641 75.7293C337.18 73.5893 337.878 71.4931 338.73 69.4584V69.3871C339.305 68.0767 339.952 66.7989 340.666 65.5594C341.153 64.684 341.67 63.8492 342.217 63.0552C342.44 62.7192 342.674 62.3935 342.917 62.0372C343.16 61.6809 343.495 61.2838 343.799 60.9174C344.103 60.5509 344.387 60.2353 344.691 59.8994C346.353 57.976 348.479 56.5142 350.866 55.6543C355.347 54.3105 359.19 57.334 361.147 63.7576Z" fill="#DCDDA1"/>
<path opacity="0.3" d="M361.147 63.7576C362.738 68.9901 362.698 75.4748 361.37 81.7049C359.93 88.4441 356.98 94.9389 352.954 99.2451C351.296 101.165 349.173 102.624 346.79 103.48C345.847 103.808 344.841 103.908 343.853 103.772C342.864 103.636 341.922 103.267 341.102 102.696C339.125 101.332 337.533 98.8175 336.499 95.4072C335.755 92.8767 335.353 90.2574 335.303 87.6195C335.303 86.6015 335.303 85.5123 335.303 84.4434C335.407 82.5478 335.63 80.6607 335.972 78.7935C336.053 78.4066 336.124 78.0198 336.205 77.6431C336.337 77.0018 336.479 76.3604 336.641 75.7293C337.18 73.5893 337.878 71.4931 338.73 69.4584V69.3871C339.305 68.0767 339.952 66.7989 340.666 65.5594C341.153 64.684 341.67 63.8492 342.217 63.0552C342.44 62.7192 342.674 62.3935 342.917 62.0372C343.16 61.6809 343.495 61.2838 343.799 60.9174C344.103 60.5509 344.387 60.2353 344.691 59.8994C346.353 57.976 348.479 56.5142 350.866 55.6543C355.347 54.3105 359.19 57.334 361.147 63.7576Z" fill="black"/>
<path d="M346.283 71.4943L343.485 85.6649C341.457 85.5428 338.02 85.3799 335.303 85.5122C335.303 85.1559 335.303 84.7996 335.303 84.4942C335.405 82.598 335.632 80.7106 335.982 78.8443C336.053 78.4575 336.124 78.0706 336.205 77.694C336.337 77.0526 336.479 76.4113 336.641 75.7801C337.18 73.6402 337.878 71.544 338.73 69.5092V69.438C338.851 69.1428 338.983 68.8475 339.115 68.5625C341.414 69.7498 343.812 70.7309 346.283 71.4943Z" fill="#EFECB4"/>
<path d="M346.283 71.4943L343.485 85.6649C341.457 85.5428 338.02 85.3799 335.303 85.5122C335.303 85.1559 335.303 84.7996 335.303 84.4942C335.405 82.598 335.632 80.7106 335.982 78.8443C336.053 78.4575 336.124 78.0706 336.205 77.694C336.337 77.0526 336.479 76.4113 336.641 75.7801C337.18 73.6402 337.878 71.544 338.73 69.5092V69.438C338.851 69.1428 338.983 68.8475 339.115 68.5625C341.414 69.7498 343.812 70.7309 346.283 71.4943Z" fill="#F4EFBA"/>
<path d="M344.012 85.5123C342.542 85.9602 341.305 85.0338 340.697 83.0385V82.9775C340.272 81.2388 340.262 79.4243 340.665 77.6806C341.068 75.9369 341.874 74.313 343.018 72.94C343.519 72.3642 344.158 71.9262 344.874 71.6675C346.344 71.2196 347.581 72.146 348.189 74.1412V74.2023C348.613 75.9403 348.625 77.754 348.223 79.4973C347.822 81.2407 347.018 82.8651 345.878 84.2398H345.827C345.339 84.812 344.715 85.2499 344.012 85.5123Z" fill="#EFECB4"/>
<path d="M344.012 85.5123C342.542 85.9602 341.305 85.0338 340.697 83.0385V82.9775C340.272 81.2388 340.262 79.4243 340.665 77.6806C341.068 75.9369 341.874 74.313 343.018 72.94C343.519 72.3642 344.158 71.9262 344.874 71.6675C346.344 71.2196 347.581 72.146 348.189 74.1412V74.2023C348.613 75.9403 348.625 77.754 348.223 79.4973C347.822 81.2407 347.018 82.8651 345.878 84.2398H345.827C345.339 84.812 344.715 85.2499 344.012 85.5123Z" fill="#DDD9A8"/>
<path d="M340.605 48.9965C340.414 49.0576 340.212 49.0796 340.011 49.0613C339.811 49.043 339.617 48.9847 339.439 48.8899C339.262 48.7951 339.105 48.6656 338.978 48.5091C338.851 48.3526 338.756 48.1722 338.699 47.9785L334.39 33.7876C334.305 33.4094 334.366 33.013 334.56 32.6778C334.754 32.3427 335.067 32.0935 335.436 31.9802C335.806 31.8669 336.204 31.8979 336.551 32.0669C336.899 32.236 337.17 32.5306 337.31 32.8918L341.619 47.0827C341.736 47.4715 341.695 47.891 341.505 48.2496C341.315 48.6082 340.992 48.8768 340.605 48.9965Z" fill="#F8ED41"/>
<path d="M328.794 56.3973C328.537 56.4759 328.264 56.4853 328.002 56.4246C327.741 56.3638 327.5 56.235 327.303 56.0512L316.495 45.8712C316.334 45.7376 316.201 45.5722 316.106 45.3852C316.01 45.1982 315.954 44.9936 315.941 44.7839C315.927 44.5743 315.957 44.3641 316.027 44.1663C316.098 43.9685 316.208 43.7873 316.351 43.634C316.494 43.4806 316.667 43.3583 316.859 43.2747C317.051 43.191 317.258 43.1477 317.467 43.1475C317.676 43.1472 317.883 43.1901 318.075 43.2733C318.267 43.3566 318.44 43.4785 318.584 43.6316L329.392 53.8116C329.543 53.9462 329.666 54.1095 329.754 54.2921C329.842 54.4747 329.893 54.6729 329.904 54.8754C329.916 55.0779 329.887 55.2807 329.82 55.472C329.753 55.6633 329.649 55.8394 329.513 55.9901C329.315 56.1899 329.066 56.3309 328.794 56.3973Z" fill="#F8ED41"/>
<path d="M336.175 128.899C335.915 128.966 335.643 128.966 335.384 128.899C335.188 128.854 335.004 128.77 334.841 128.653C334.678 128.535 334.54 128.387 334.434 128.215C334.329 128.044 334.258 127.854 334.226 127.655C334.194 127.456 334.202 127.253 334.248 127.057L337.584 112.601C337.629 112.405 337.712 112.22 337.829 112.057C337.945 111.893 338.093 111.754 338.263 111.648C338.433 111.542 338.622 111.47 338.819 111.437C339.017 111.404 339.219 111.41 339.414 111.456C339.609 111.501 339.793 111.585 339.956 111.702C340.119 111.819 340.257 111.967 340.363 112.137C340.469 112.308 340.541 112.498 340.573 112.696C340.606 112.895 340.6 113.098 340.555 113.293L337.219 127.749C337.165 128.018 337.039 128.266 336.855 128.469C336.671 128.671 336.436 128.82 336.175 128.899Z" fill="#F8ED41"/>
<path d="M362.972 122.771C362.584 122.889 362.167 122.847 361.809 122.657C361.452 122.466 361.185 122.141 361.066 121.753L356.756 107.562C356.68 107.365 356.645 107.154 356.653 106.943C356.661 106.731 356.713 106.524 356.805 106.333C356.897 106.143 357.027 105.973 357.187 105.836C357.347 105.698 357.534 105.595 357.735 105.533C357.937 105.472 358.149 105.452 358.358 105.476C358.568 105.501 358.77 105.568 358.952 105.674C359.134 105.781 359.293 105.924 359.417 106.094C359.542 106.265 359.63 106.46 359.677 106.666L363.986 120.847C364.103 121.237 364.062 121.658 363.873 122.018C363.683 122.378 363.359 122.649 362.972 122.771Z" fill="#F8ED41"/>
<path d="M378.91 103.399C378.653 103.477 378.38 103.487 378.119 103.426C377.857 103.365 377.616 103.236 377.419 103.052L366.611 92.8724C366.314 92.5943 366.139 92.2091 366.125 91.8015C366.111 91.3939 366.258 90.9973 366.535 90.699C366.812 90.4006 367.196 90.225 367.602 90.2107C368.008 90.1963 368.403 90.3445 368.7 90.6226L379.498 100.782C379.646 100.919 379.765 101.083 379.85 101.267C379.934 101.45 379.981 101.648 379.989 101.849C379.996 102.051 379.964 102.252 379.894 102.441C379.823 102.63 379.716 102.803 379.579 102.951C379.396 103.153 379.166 103.307 378.91 103.399Z" fill="#F8ED41"/>
<path d="M389.049 84.2803C388.79 84.3518 388.517 84.3518 388.258 84.2803L373.861 80.9311C373.666 80.8856 373.482 80.802 373.319 80.6851C373.156 80.5682 373.017 80.4201 372.911 80.2495C372.806 80.0789 372.734 79.889 372.701 79.6906C372.668 79.4923 372.675 79.2894 372.72 79.0936C372.765 78.8977 372.849 78.7127 372.965 78.5492C373.082 78.3857 373.229 78.2467 373.399 78.1404C373.569 78.0341 373.758 77.9624 373.956 77.9294C374.153 77.8964 374.355 77.9029 374.55 77.9483L388.947 81.2976C389.274 81.3757 389.565 81.5591 389.777 81.8197C389.99 82.0803 390.111 82.4036 390.122 82.74C390.134 83.0764 390.035 83.4073 389.841 83.6818C389.647 83.9564 389.369 84.1595 389.049 84.2599V84.2803Z" fill="#F8ED41"/>
<path d="M388.319 62.6275L374.185 66.954C373.989 67.0308 373.779 67.0662 373.568 67.0578C373.358 67.0494 373.151 66.9974 372.961 66.9052C372.772 66.8129 372.603 66.6823 372.466 66.5216C372.329 66.3608 372.226 66.1734 372.165 65.971C372.103 65.7687 372.084 65.5557 372.108 65.3455C372.132 65.1353 372.199 64.9323 372.305 64.7494C372.411 64.5664 372.554 64.4074 372.724 64.2823C372.894 64.1571 373.087 64.0686 373.293 64.0221L387.427 59.6956C387.623 59.6187 387.833 59.5834 388.044 59.5918C388.254 59.6002 388.461 59.6521 388.65 59.7444C388.84 59.8367 389.009 59.9673 389.146 60.128C389.283 60.2888 389.385 60.4762 389.447 60.6786C389.509 60.8809 389.528 61.0939 389.504 61.3041C389.48 61.5143 389.412 61.7173 389.306 61.9002C389.201 62.0832 389.058 62.2422 388.888 62.3673C388.718 62.4925 388.524 62.581 388.319 62.6275Z" fill="#F8ED41"/>
<path d="M366.804 55.0943C366.547 55.1719 366.275 55.1807 366.013 55.12C365.752 55.0593 365.511 54.9312 365.314 54.7482C365.166 54.611 365.048 54.4459 364.964 54.2623C364.881 54.0788 364.835 53.8805 364.828 53.6789C364.821 53.4773 364.855 53.2763 364.926 53.0877C364.997 52.8991 365.105 52.7265 365.243 52.5798L375.331 41.7381C375.464 41.576 375.629 41.4429 375.815 41.3472C376.001 41.2514 376.205 41.195 376.414 41.1814C376.623 41.1679 376.832 41.1974 377.029 41.2683C377.226 41.3391 377.406 41.4497 377.559 41.5933C377.712 41.7369 377.834 41.9104 377.917 42.1031C378 42.2959 378.043 42.5037 378.044 42.7138C378.044 42.9238 378.001 43.1318 377.918 43.3246C377.835 43.5175 377.714 43.6913 377.561 43.8352L367.473 54.6769C367.294 54.8771 367.062 55.0219 366.804 55.0943Z" fill="#F8ED41"/>
<path d="M354.516 48.518C354.257 48.5895 353.984 48.5895 353.725 48.518C353.331 48.4235 352.99 48.1773 352.776 47.8325C352.562 47.4877 352.491 47.0721 352.579 46.6754L355.874 32.2504C355.969 31.8551 356.214 31.5128 356.557 31.2975C356.901 31.0823 357.315 31.0113 357.71 31.1C357.911 31.1374 358.104 31.2154 358.275 31.3293C358.445 31.4432 358.592 31.5907 358.704 31.7628C358.817 31.935 358.894 32.1282 358.93 32.331C358.967 32.5337 358.962 32.7418 358.916 32.9426L355.58 47.3982C355.519 47.6637 355.388 47.9077 355.201 48.1047C355.014 48.3018 354.777 48.4445 354.516 48.518Z" fill="#F8ED41"/>
<path d="M297.535 98.7461C300.455 95.0304 300.577 92.7094 302.838 90.8872C305.099 89.0649 307.4 88.953 310.777 89.9302C313.332 90.6632 316.323 90.2967 317.357 91.2435C317.641 91.4471 317.185 93.086 315.988 93.6765C314.548 94.3891 312.227 94.216 310.503 94.2262C306.6 94.2262 309.803 98.0946 306.042 102.004C304.44 104.854 297.535 98.7461 297.535 98.7461Z" fill="#FFA8A7"/>
<path d="M387.082 157.658L422.943 134.6L438.75 139.69L387.082 157.658Z" fill="#DCDDA1"/>
<path d="M387.082 157.658L418.076 131.699L411.192 123.718L387.082 157.658Z" fill="#DCDDA1"/>
<path d="M418.076 131.699V137.725L387.082 157.658L418.076 131.699Z" fill="#DCDDA1"/>
<path opacity="0.25" d="M418.076 131.699V137.725L387.082 157.658L418.076 131.699Z" fill="black"/>
<path d="M425.437 128.268C425.229 128.27 425.025 128.208 424.854 128.09C424.682 127.972 424.551 127.803 424.478 127.608C424.405 127.412 424.393 127.198 424.445 126.996C424.497 126.794 424.61 126.612 424.768 126.477C425.397 125.937 426.005 125.377 426.613 124.807C426.811 124.644 427.062 124.561 427.318 124.576C427.573 124.591 427.814 124.702 427.991 124.888C428.168 125.073 428.268 125.319 428.272 125.576C428.276 125.833 428.184 126.082 428.013 126.273C427.384 126.874 426.745 127.454 426.096 128.024C425.913 128.182 425.679 128.268 425.437 128.268Z" fill="#F8ED41"/>
<path d="M430.77 122.883C430.524 122.883 430.286 122.792 430.101 122.628C429.9 122.45 429.777 122.199 429.76 121.93C429.743 121.661 429.833 121.396 430.01 121.193C431.024 119.971 432.109 118.679 433.052 117.345C433.131 117.237 433.23 117.146 433.344 117.077C433.459 117.008 433.585 116.962 433.717 116.942C433.849 116.923 433.983 116.929 434.113 116.961C434.242 116.994 434.364 117.052 434.471 117.131C434.578 117.211 434.669 117.311 434.738 117.425C434.806 117.54 434.852 117.667 434.872 117.799C434.892 117.932 434.885 118.067 434.853 118.197C434.821 118.327 434.763 118.449 434.684 118.556C433.67 119.941 432.595 121.274 431.5 122.537C431.409 122.642 431.297 122.726 431.171 122.786C431.046 122.845 430.909 122.878 430.77 122.883ZM436.712 114.82C436.522 114.821 436.336 114.768 436.174 114.668C436.061 114.597 435.963 114.504 435.885 114.396C435.807 114.287 435.752 114.163 435.722 114.033C435.691 113.902 435.687 113.767 435.709 113.635C435.731 113.503 435.779 113.376 435.85 113.263C436.712 111.888 437.533 110.443 438.303 108.977C438.364 108.855 438.447 108.747 438.549 108.658C438.652 108.57 438.771 108.503 438.899 108.461C439.028 108.419 439.163 108.403 439.298 108.415C439.433 108.426 439.564 108.465 439.683 108.528C439.803 108.591 439.909 108.678 439.995 108.782C440.081 108.887 440.145 109.008 440.183 109.138C440.222 109.268 440.234 109.405 440.22 109.54C440.205 109.675 440.164 109.805 440.098 109.924C439.307 111.441 438.456 112.978 437.573 114.342C437.482 114.489 437.355 114.609 437.204 114.693C437.054 114.777 436.884 114.821 436.712 114.82ZM441.386 105.943C441.243 105.946 441.101 105.918 440.97 105.862C440.848 105.808 440.738 105.73 440.646 105.633C440.554 105.537 440.482 105.422 440.434 105.298C440.386 105.173 440.363 105.04 440.366 104.906C440.369 104.772 440.399 104.64 440.453 104.518C441.112 103.022 441.73 101.464 442.298 99.927C442.395 99.6804 442.584 99.4815 442.824 99.3724C443.065 99.2633 443.338 99.2527 443.586 99.3429C443.835 99.433 444.038 99.6168 444.153 99.8551C444.269 100.093 444.287 100.368 444.204 100.619C443.626 102.217 442.988 103.806 442.308 105.343C442.228 105.521 442.099 105.673 441.935 105.78C441.772 105.886 441.581 105.943 441.386 105.943ZM444.813 96.5167C444.715 96.531 444.616 96.531 444.519 96.5167C444.262 96.4389 444.047 96.2626 443.92 96.0261C443.793 95.7896 443.764 95.5122 443.839 95.2543C444.296 93.6764 444.711 92.068 445.076 90.4596C445.146 90.2091 445.309 89.995 445.531 89.8612C445.753 89.7274 446.018 89.6841 446.271 89.7401C446.524 89.7961 446.746 89.9472 446.891 90.1624C447.037 90.3776 447.095 90.6406 447.053 90.8973C446.678 92.5566 446.252 94.216 445.786 95.8244C445.717 96.0283 445.586 96.2051 445.411 96.3295C445.237 96.4538 445.027 96.5194 444.813 96.5167ZM447.003 86.7235H446.84C446.708 86.7025 446.582 86.6554 446.468 86.5851C446.354 86.5148 446.255 86.4226 446.177 86.3139C446.099 86.205 446.043 86.0818 446.012 85.9512C445.982 85.8206 445.977 85.6852 445.999 85.5528C446.263 83.9342 446.475 82.2748 446.628 80.6359C446.653 80.3659 446.784 80.1171 446.993 79.9443C447.201 79.7716 447.469 79.6889 447.738 79.7146C448.007 79.7402 448.254 79.8721 448.426 80.0811C448.598 80.2902 448.681 80.5593 448.655 80.8293C448.493 82.5192 448.28 84.209 448.017 85.9193C447.967 86.1508 447.839 86.3578 447.654 86.5046C447.469 86.6513 447.238 86.7288 447.003 86.7235ZM447.956 76.7267C447.687 76.7267 447.429 76.6195 447.239 76.4286C447.049 76.2377 446.942 75.9787 446.942 75.7087C446.942 74.9215 446.942 74.1376 446.942 73.3571C446.942 72.4918 446.942 71.6164 446.942 70.7511C446.942 70.4811 447.049 70.2221 447.239 70.0312C447.429 69.8403 447.687 69.7331 447.956 69.7331C448.225 69.7331 448.482 69.8403 448.673 70.0312C448.863 70.2221 448.97 70.4811 448.97 70.7511C448.97 71.6469 448.97 72.5326 448.97 73.4284C448.97 74.3242 448.97 75.0368 448.97 75.8411C448.937 76.0875 448.817 76.3136 448.63 76.4768C448.443 76.6399 448.203 76.7288 447.956 76.7267ZM447.601 66.6994C447.349 66.7007 447.105 66.6075 446.917 66.4381C446.73 66.2687 446.612 66.0352 446.587 65.7832C446.425 64.1341 446.192 62.4849 445.918 60.8765C445.895 60.7428 445.899 60.6059 445.929 60.4737C445.959 60.3415 446.015 60.2165 446.093 60.1059C446.171 59.9953 446.27 59.9013 446.384 59.8291C446.499 59.757 446.626 59.7081 446.759 59.6854C446.892 59.6627 447.029 59.6665 447.16 59.6967C447.292 59.7268 447.417 59.7827 447.527 59.8612C447.637 59.9397 447.731 60.0391 447.802 60.1539C447.874 60.2687 447.923 60.3967 447.946 60.5303C448.229 62.1795 448.463 63.8796 448.645 65.5694C448.659 65.7033 448.647 65.8385 448.608 65.9674C448.57 66.0963 448.506 66.2163 448.421 66.3204C448.337 66.4246 448.232 66.5108 448.114 66.5741C447.996 66.6374 447.866 66.6765 447.733 66.6892L447.601 66.6994ZM445.867 56.8045C445.637 56.8118 445.411 56.7401 445.227 56.6014C445.042 56.4626 444.911 56.2649 444.853 56.041C444.448 54.4325 443.981 52.8444 443.464 51.2971C443.422 51.1701 443.404 51.0359 443.413 50.9022C443.422 50.7685 443.458 50.6379 443.517 50.5178C443.576 50.3978 443.658 50.2906 443.759 50.2025C443.86 50.1144 443.976 50.047 444.103 50.0042C444.229 49.9614 444.363 49.9441 444.496 49.9532C444.629 49.9622 444.759 49.9976 444.879 50.0571C444.999 50.1167 445.105 50.1993 445.193 50.3003C445.281 50.4012 445.348 50.5185 445.391 50.6455C445.928 52.2336 446.404 53.8828 446.82 55.5421C446.885 55.8026 446.844 56.0782 446.708 56.3089C446.571 56.5396 446.349 56.7067 446.09 56.7739C446.017 56.7918 445.942 56.8021 445.867 56.8045ZM442.663 47.2963C442.467 47.295 442.275 47.2367 442.112 47.1282C441.948 47.0198 441.819 46.866 441.741 46.6855C441.082 45.1687 440.362 43.6315 439.601 42.2369C439.528 42.1186 439.479 41.9863 439.458 41.8483C439.437 41.7103 439.445 41.5694 439.481 41.4346C439.517 41.2997 439.58 41.1737 439.666 41.0644C439.753 40.955 439.86 40.8646 439.983 40.7989C440.106 40.7331 440.24 40.6934 440.379 40.6822C440.518 40.6709 440.657 40.6884 440.788 40.7335C440.92 40.7786 441.041 40.8504 441.144 40.9444C441.246 41.0384 441.329 41.1526 441.386 41.2799C442.177 42.756 442.927 44.3339 443.596 45.8813C443.701 46.1284 443.705 46.4074 443.606 46.6572C443.507 46.907 443.314 47.1075 443.069 47.2149C442.941 47.2722 442.803 47.3 442.663 47.2963ZM437.928 38.4703C437.761 38.4694 437.597 38.4271 437.45 38.3472C437.304 38.2673 437.179 38.1522 437.087 38.0122C436.184 36.6379 435.211 35.2941 434.197 34.0216C434.039 33.8101 433.969 33.5451 434.002 33.2827C434.035 33.0203 434.168 32.7811 434.374 32.6157C434.579 32.4503 434.841 32.3718 435.103 32.3967C435.366 32.4216 435.608 32.548 435.779 32.7491C436.793 34.0725 437.807 35.4672 438.821 36.8924C438.966 37.118 439.017 37.3924 438.962 37.6557C438.907 37.9189 438.75 38.1495 438.527 38.2972C438.35 38.4164 438.141 38.477 437.928 38.4703ZM431.693 30.6316C431.555 30.6325 431.418 30.605 431.29 30.5507C431.163 30.4964 431.048 30.4166 430.953 30.3161C429.848 29.1454 428.661 27.9848 427.424 26.865C427.243 26.6798 427.14 26.432 427.135 26.1725C427.129 25.913 427.223 25.6613 427.397 25.4689C427.57 25.2765 427.81 25.1579 428.068 25.1373C428.326 25.1168 428.582 25.1959 428.783 25.3584C430.061 26.5087 431.277 27.71 432.423 28.9112C432.612 29.102 432.718 29.36 432.718 29.6289C432.718 29.8979 432.612 30.1559 432.423 30.3466C432.326 30.4404 432.212 30.5138 432.086 30.5628C431.961 30.6117 431.827 30.6351 431.693 30.6316ZM424.281 23.8925C424.053 23.8911 423.831 23.8122 423.653 23.6685C422.385 22.6505 421.047 21.6834 419.678 20.7265C419.458 20.5724 419.308 20.3369 419.26 20.0716C419.213 19.8063 419.272 19.533 419.425 19.3115C419.578 19.0904 419.813 18.9394 420.077 18.8917C420.341 18.844 420.614 18.9034 420.834 19.057C422.233 20.075 423.602 21.093 424.89 22.111C425.057 22.2415 425.18 22.4214 425.24 22.6254C425.3 22.8294 425.296 23.0473 425.226 23.2484C425.157 23.4495 425.026 23.6237 424.853 23.7466C424.68 23.8694 424.473 23.9347 424.261 23.9332L424.281 23.8925ZM416.059 18.1713C415.872 18.17 415.69 18.1172 415.532 18.0186C414.153 17.1737 412.703 16.3389 411.243 15.5449C411.006 15.4166 410.83 15.1993 410.753 14.9406C410.676 14.6819 410.704 14.4031 410.832 14.1655C410.96 13.9279 411.176 13.751 411.434 13.6737C411.692 13.5963 411.969 13.6249 412.206 13.7532C413.707 14.5676 415.177 15.4125 416.596 16.2778C416.789 16.3925 416.938 16.568 417.021 16.7768C417.104 16.9857 417.116 17.2163 417.054 17.4325C416.993 17.6487 416.862 17.8385 416.682 17.9721C416.502 18.1058 416.283 18.1758 416.059 18.1713ZM407.258 13.3969C407.11 13.3982 406.964 13.3632 406.832 13.2951C405.352 12.5927 403.791 11.9004 402.31 11.2591C402.187 11.2076 402.075 11.1323 401.981 11.0374C401.887 10.9426 401.813 10.83 401.762 10.7062C401.711 10.5823 401.685 10.4496 401.685 10.3157C401.685 10.1818 401.712 10.0492 401.763 9.92551C401.814 9.80185 401.889 9.68954 401.984 9.59499C402.078 9.50044 402.19 9.4255 402.314 9.37445C402.437 9.32341 402.569 9.29725 402.703 9.29748C402.836 9.29771 402.968 9.32432 403.091 9.37579C404.642 10.0273 406.194 10.7297 407.704 11.4118C407.911 11.5124 408.078 11.6806 408.177 11.8888C408.276 12.097 408.302 12.3328 408.25 12.5577C408.198 12.7825 408.072 12.983 407.892 13.1262C407.711 13.2695 407.488 13.3469 407.258 13.346V13.3969ZM304.856 10.8621C304.617 10.8618 304.387 10.7772 304.204 10.6232C304.022 10.4692 303.899 10.2555 303.858 10.0198C303.817 9.78409 303.86 9.54135 303.979 9.33421C304.099 9.12708 304.287 8.96879 304.511 8.88715C306.103 8.31707 307.705 7.76735 309.276 7.25835C309.516 7.21158 309.764 7.25308 309.975 7.37524C310.187 7.49739 310.347 7.69201 310.427 7.92339C310.508 8.15476 310.502 8.40738 310.411 8.63489C310.321 8.8624 310.152 9.04955 309.935 9.16201C308.374 9.66083 306.792 10.18 305.231 10.7704C305.122 10.8212 305.005 10.8522 304.886 10.8621H304.856ZM398.012 9.50813C397.891 9.50776 397.771 9.48711 397.657 9.44705C396.136 8.88715 394.554 8.34761 392.962 7.83861C392.828 7.80496 392.701 7.74389 392.591 7.65916C392.481 7.57443 392.389 7.46787 392.321 7.34607C392.254 7.22426 392.212 7.08982 392.198 6.95108C392.184 6.81234 392.199 6.67225 392.242 6.5395C392.284 6.40675 392.353 6.28417 392.445 6.17936C392.536 6.07455 392.649 5.98975 392.774 5.9302C392.9 5.87066 393.036 5.83764 393.175 5.8332C393.314 5.82877 393.452 5.853 393.581 5.90441C395.203 6.41341 396.805 6.92241 398.356 7.53321C398.58 7.61485 398.769 7.77314 398.888 7.98027C399.007 8.18741 399.05 8.43014 399.009 8.66586C398.968 8.90158 398.845 9.11521 398.663 9.26924C398.481 9.42327 398.25 9.50785 398.012 9.50813ZM314.407 7.78771C314.138 7.82416 313.865 7.75186 313.649 7.58672C313.434 7.42158 313.292 7.17713 313.256 6.90714C313.219 6.63715 313.291 6.36373 313.456 6.14705C313.62 5.93036 313.864 5.78815 314.133 5.75171C315.725 5.29361 317.357 4.85586 318.989 4.43848C319.119 4.40499 319.254 4.39768 319.387 4.41697C319.52 4.43627 319.647 4.48179 319.762 4.5509C319.877 4.62001 319.977 4.71134 320.057 4.8196C320.137 4.92786 320.194 5.05091 320.226 5.18162C320.291 5.4435 320.249 5.72031 320.11 5.95126C319.971 6.18221 319.747 6.34843 319.486 6.41341C317.874 6.82061 316.262 7.25835 314.69 7.70627C314.601 7.74871 314.505 7.77621 314.407 7.78771ZM388.501 6.47449C388.414 6.48856 388.325 6.48856 388.238 6.47449C386.676 6.05711 385.054 5.64991 383.422 5.27324C383.292 5.24317 383.169 5.18771 383.061 5.11004C382.952 5.03237 382.86 4.93401 382.79 4.82057C382.719 4.70713 382.671 4.58084 382.649 4.44891C382.627 4.31698 382.631 4.18199 382.661 4.05164C382.691 3.9213 382.747 3.79816 382.824 3.68925C382.901 3.58034 382.999 3.48779 383.112 3.41689C383.225 3.34599 383.351 3.29813 383.482 3.27604C383.614 3.25395 383.748 3.25806 383.878 3.28814C385.531 3.6648 387.183 4.08218 388.765 4.50974C389.034 4.54484 389.278 4.68576 389.443 4.90149C389.609 5.11722 389.682 5.39009 389.647 5.66009C389.612 5.93008 389.472 6.17507 389.257 6.34116C389.042 6.50725 388.77 6.58084 388.501 6.54575V6.47449ZM324.109 5.3445C323.841 5.37285 323.571 5.29279 323.361 5.12192C323.151 4.95106 323.017 4.70338 322.989 4.43339C322.961 4.1634 323.041 3.89321 323.211 3.68225C323.381 3.47129 323.628 3.33685 323.896 3.3085C325.539 2.9522 327.202 2.61626 328.834 2.2905C328.967 2.26644 329.104 2.26894 329.236 2.29787C329.368 2.3268 329.493 2.38158 329.604 2.4591C329.716 2.53661 329.81 2.63534 329.883 2.74964C329.957 2.86394 330.007 2.99158 330.031 3.12526C330.054 3.25895 330.052 3.39607 330.023 3.52878C329.994 3.6615 329.94 3.78722 329.863 3.89877C329.785 4.01031 329.687 4.1055 329.573 4.17889C329.459 4.25228 329.332 4.30244 329.199 4.3265C327.587 4.62172 325.945 4.94748 324.322 5.3445C324.252 5.3544 324.18 5.3544 324.109 5.3445ZM378.748 4.24506C378.687 4.25513 378.626 4.25513 378.565 4.24506C376.973 3.94984 375.321 3.67498 373.668 3.43066C373.404 3.39041 373.166 3.24694 373.007 3.0315C372.847 2.81606 372.779 2.54608 372.817 2.28032C372.857 2.01491 373 1.77614 373.214 1.61599C373.429 1.45584 373.698 1.38727 373.962 1.4252C375.645 1.66952 377.318 1.94438 378.94 2.24978C379.209 2.27543 379.457 2.40728 379.629 2.61633C379.801 2.82538 379.884 3.0945 379.858 3.36449C379.832 3.63448 379.701 3.88323 379.493 4.056C379.285 4.22878 379.017 4.31143 378.748 4.28578V4.24506ZM333.944 3.55282C333.675 3.57172 333.41 3.48259 333.206 3.30505C333.003 3.1275 332.878 2.87607 332.859 2.60608C332.84 2.33609 332.929 2.06965 333.106 1.86538C333.283 1.6611 333.533 1.53572 333.802 1.51682C335.465 1.2725 337.148 1.05872 338.79 0.865301C338.924 0.84976 339.059 0.860937 339.188 0.898183C339.317 0.935429 339.437 0.998004 339.542 1.08228C339.646 1.16656 339.733 1.27086 339.798 1.38914C339.862 1.50741 339.902 1.63732 339.916 1.77132C339.93 1.90435 339.918 2.03886 339.88 2.16715C339.842 2.29544 339.78 2.41501 339.696 2.519C339.612 2.623 339.509 2.7094 339.392 2.77325C339.274 2.8371 339.146 2.87715 339.014 2.89112C337.391 3.07436 335.739 3.28814 334.096 3.53246L333.944 3.55282ZM368.852 2.7995H368.741C367.129 2.62644 365.466 2.48392 363.793 2.36176C363.527 2.34091 363.281 2.21604 363.106 2.01414C362.932 1.81223 362.843 1.5495 362.86 1.28268C362.868 1.14424 362.903 1.00877 362.965 0.884599C363.026 0.760425 363.112 0.650157 363.217 0.560557C363.323 0.470957 363.445 0.403914 363.577 0.363539C363.709 0.323165 363.848 0.310309 363.986 0.32576C365.679 0.43774 367.372 0.590441 369.055 0.763501C369.324 0.77835 369.576 0.899845 369.756 1.10126C369.935 1.30267 370.028 1.5675 370.013 1.83749C369.998 2.10748 369.877 2.36052 369.677 2.54093C369.476 2.72134 369.212 2.81435 368.943 2.7995H368.852ZM343.88 2.4432C343.611 2.45265 343.35 2.35446 343.153 2.17023C342.956 1.986 342.84 1.73082 342.831 1.46083C342.821 1.19084 342.919 0.928154 343.103 0.73056C343.286 0.532966 343.54 0.41665 343.809 0.4072C345.482 0.28504 347.175 0.18324 348.828 0.11198C349.097 0.11198 349.355 0.219233 349.545 0.410146C349.735 0.601058 349.842 0.85999 349.842 1.12998C349.842 1.39997 349.735 1.6589 349.545 1.84982C349.355 2.04073 349.097 2.14798 348.828 2.14798C347.196 2.21924 345.533 2.31086 343.88 2.4432ZM358.916 2.10726C357.466 2.10726 356.016 2.036 354.587 2.036H353.847C353.578 2.036 353.32 1.92875 353.13 1.73784C352.94 1.54692 352.833 1.28799 352.833 1.018C352.833 0.74801 352.94 0.489078 353.13 0.298166C353.32 0.107253 353.578 0 353.847 0L354.485 0C355.935 0 357.416 0 358.886 0.0712601C359.155 0.0712601 359.412 0.178513 359.603 0.369426C359.793 0.560338 359.9 0.81927 359.9 1.08926C359.9 1.35404 359.797 1.60845 359.613 1.79851C359.43 1.98857 359.18 2.09932 358.916 2.10726Z" fill="#F8ED41"/>
<path d="M297.758 13.6209C297.558 13.6199 297.363 13.5594 297.197 13.4471C297.031 13.3347 296.902 13.1756 296.826 12.9897C296.774 12.8661 296.747 12.7334 296.747 12.5994C296.747 12.4654 296.773 12.3327 296.824 12.2087C296.874 12.0848 296.949 11.9722 297.043 11.8774C297.138 11.7826 297.25 11.7074 297.373 11.6561L299.746 10.6992C299.993 10.614 300.263 10.6279 300.5 10.738C300.738 10.8481 300.923 11.0459 301.019 11.2901C301.114 11.5343 301.112 11.8061 301.013 12.0488C300.913 12.2915 300.725 12.4863 300.486 12.5927L298.144 13.5394C298.022 13.5916 297.891 13.6193 297.758 13.6209Z" fill="#F8ED41"/>
<path d="M72.0063 106.432L118.625 83.4863L85.0043 115.584L72.0063 106.432Z" fill="#DCDDA1"/>
<path d="M118.625 83.4863L67.2207 100.467L54.2227 91.3046L118.625 83.4863Z" fill="#DCDDA1"/>
<path d="M67.2207 100.467L69.2586 113.568L72.0063 106.432L118.625 83.4863L67.2207 100.467Z" fill="#C6C691"/>
<path opacity="0.25" d="M67.2207 100.467L69.2586 113.568L72.0063 106.432L118.625 83.4863L67.2207 100.467Z" fill="black"/>
<path d="M69.2587 113.568L76.3356 109.486L72.0063 106.432L69.2587 113.568Z" fill="#B7B688"/>
<path d="M72.0063 106.432L76.3356 109.486L75.2102 110.138L72.0063 106.432Z" fill="#B7B688"/>
<path d="M75.5042 243.832C75.39 243.83 75.2769 243.81 75.1696 243.771C73.517 243.18 71.915 242.569 70.3942 241.969C70.2703 241.919 70.1573 241.846 70.0617 241.753C69.9661 241.659 69.8897 241.548 69.837 241.425C69.7842 241.302 69.7562 241.17 69.7543 241.036C69.7525 240.902 69.777 240.77 69.8264 240.645C69.8756 240.521 69.9487 240.407 70.0416 240.311C70.1345 240.215 70.2453 240.139 70.3677 240.086C70.4901 240.033 70.6217 240.005 70.755 240.003C70.8883 240.001 71.0206 240.026 71.1445 240.075C72.645 240.666 74.1861 241.266 75.8489 241.857C76.0729 241.938 76.2612 242.097 76.3805 242.304C76.4999 242.511 76.5428 242.754 76.5017 242.989C76.4605 243.225 76.338 243.439 76.1556 243.593C75.9731 243.747 75.7425 243.831 75.5042 243.832ZM66.0953 240.075C65.9562 240.074 65.8187 240.046 65.6898 239.994C64.1081 239.291 62.5467 238.569 61.0563 237.836C60.9365 237.777 60.8293 237.695 60.741 237.594C60.6528 237.494 60.585 237.377 60.5417 237.251C60.4984 237.124 60.4804 236.99 60.4886 236.856C60.4969 236.723 60.5313 236.592 60.5899 236.471C60.6485 236.351 60.7301 236.244 60.8301 236.155C60.9301 236.066 61.0465 235.998 61.1726 235.955C61.2988 235.911 61.4322 235.893 61.5653 235.902C61.6985 235.91 61.8287 235.944 61.9485 236.003C63.4186 236.726 64.9902 237.439 66.5009 238.131C66.7105 238.227 66.8813 238.391 66.9853 238.598C67.0894 238.804 67.1203 239.04 67.0731 239.266C67.0259 239.492 66.9033 239.696 66.7256 239.843C66.5479 239.99 66.3256 240.072 66.0953 240.075ZM56.9703 235.596C56.7992 235.597 56.6311 235.551 56.4837 235.464C54.973 234.639 53.442 233.774 52.0631 232.888C51.9254 232.835 51.8009 232.753 51.6982 232.647C51.5955 232.541 51.517 232.413 51.4683 232.274C51.4195 232.134 51.4017 231.986 51.416 231.838C51.4304 231.691 51.4765 231.549 51.5512 231.421C51.6259 231.294 51.7275 231.184 51.8487 231.1C51.9699 231.016 52.108 230.959 52.2532 230.934C52.3985 230.909 52.5474 230.916 52.6897 230.954C52.8319 230.993 52.9641 231.062 53.077 231.158C54.4762 232.023 55.926 232.868 57.4063 233.682C57.6053 233.79 57.7627 233.962 57.8534 234.169C57.9442 234.377 57.9631 234.61 57.9071 234.83C57.8512 235.05 57.7236 235.245 57.5447 235.384C57.3658 235.522 57.1457 235.597 56.9196 235.596H56.9703ZM48.3523 230.251C48.1455 230.251 47.9439 230.187 47.7744 230.068C46.3651 229.05 44.976 228.032 43.7188 227.014C43.5077 226.847 43.3715 226.602 43.3401 226.334C43.3088 226.066 43.3848 225.796 43.5515 225.584C43.7182 225.372 43.962 225.235 44.2291 225.204C44.4963 225.172 44.7649 225.249 44.976 225.416C46.2535 226.434 47.602 227.452 49.0316 228.47C49.2518 228.624 49.4021 228.86 49.4496 229.125C49.4972 229.39 49.438 229.664 49.2851 229.885C49.1773 230.017 49.0382 230.12 48.8805 230.184C48.7229 230.248 48.5516 230.271 48.3827 230.251H48.3523ZM40.4744 223.96C40.2196 223.962 39.9735 223.868 39.7849 223.696C38.5176 222.525 37.2806 221.303 36.1248 220.071C35.936 219.881 35.83 219.623 35.83 219.354C35.83 219.085 35.936 218.827 36.1248 218.636C36.2191 218.541 36.3312 218.465 36.4547 218.413C36.5783 218.362 36.7108 218.335 36.8447 218.335C36.9785 218.335 37.111 218.362 37.2346 218.413C37.3581 218.465 37.4703 218.541 37.5645 218.636C38.6798 219.837 39.8762 221.018 41.1131 222.148C41.2644 222.286 41.3706 222.467 41.4177 222.667C41.4649 222.866 41.4508 223.076 41.3773 223.267C41.3039 223.459 41.1745 223.624 41.0061 223.74C40.8377 223.856 40.6382 223.919 40.4338 223.92L40.4744 223.96ZM33.5394 216.559C33.3879 216.56 33.2383 216.526 33.1014 216.461C32.9645 216.396 32.844 216.301 32.7486 216.183C31.6738 214.849 30.6397 213.454 29.7069 212.029C29.6199 211.92 29.5564 211.793 29.5205 211.658C29.4845 211.522 29.4767 211.381 29.4977 211.242C29.5187 211.103 29.568 210.971 29.6425 210.852C29.717 210.733 29.8151 210.632 29.9307 210.553C30.0462 210.474 30.1767 210.42 30.3139 210.394C30.4512 210.369 30.5923 210.372 30.7283 210.403C30.8644 210.435 30.9925 210.494 31.1046 210.578C31.2167 210.662 31.3104 210.767 31.3798 210.889C32.3126 212.263 33.3062 213.617 34.3404 214.91C34.5073 215.12 34.585 215.387 34.5565 215.654C34.528 215.921 34.3957 216.166 34.1883 216.335C33.9991 216.469 33.7702 216.534 33.5394 216.519V216.559ZM27.8616 208.151C27.6802 208.152 27.5018 208.105 27.3449 208.013C27.1879 207.922 27.0583 207.79 26.9694 207.632C26.138 206.155 25.3573 204.578 24.6375 203.03C24.5271 202.786 24.5174 202.507 24.6104 202.256C24.7034 202.004 24.8917 201.799 25.1343 201.686C25.3778 201.576 25.655 201.566 25.9057 201.659C26.1563 201.753 26.3601 201.942 26.4726 202.185C27.1722 203.702 27.9326 205.239 28.7437 206.634C28.8304 206.789 28.8752 206.963 28.8737 207.141C28.8723 207.319 28.8246 207.493 28.7354 207.646C28.6463 207.799 28.5187 207.927 28.3654 208.015C28.2121 208.104 28.0385 208.15 27.8616 208.151ZM23.6134 198.928C23.408 198.926 23.2078 198.862 23.0395 198.744C22.8711 198.626 22.7424 198.459 22.6705 198.266C22.0825 196.678 21.5451 195.029 21.0584 193.359C21.0218 193.23 21.0109 193.095 21.0262 192.962C21.0416 192.829 21.0829 192.7 21.1478 192.582C21.2128 192.465 21.3001 192.362 21.4048 192.279C21.5095 192.195 21.6295 192.134 21.758 192.097C21.8865 192.06 22.0209 192.049 22.1537 192.064C22.2864 192.08 22.4148 192.121 22.5315 192.187C22.6483 192.252 22.7511 192.339 22.8341 192.445C22.9171 192.55 22.9786 192.67 23.0152 192.799C23.4816 194.418 24.0291 196.016 24.5665 197.553C24.6135 197.679 24.6353 197.813 24.6307 197.947C24.626 198.081 24.595 198.213 24.5394 198.335C24.4838 198.457 24.4048 198.567 24.3067 198.658C24.2087 198.749 24.0937 198.82 23.9683 198.867C23.8521 198.894 23.732 198.901 23.6134 198.887V198.928ZM20.7948 189.165C20.5591 189.17 20.3288 189.093 20.1438 188.946C19.9587 188.799 19.8304 188.592 19.7809 188.361C19.4261 186.722 19.1118 185.022 18.838 183.271C18.8174 183.137 18.8232 183.001 18.8551 182.869C18.8869 182.738 18.9443 182.614 19.0239 182.505C19.1034 182.396 19.2036 182.303 19.3187 182.233C19.4338 182.163 19.5616 182.116 19.6948 182.095C19.8279 182.074 19.9638 182.08 20.0947 182.112C20.2256 182.144 20.349 182.202 20.4577 182.282C20.5665 182.361 20.6585 182.462 20.7285 182.578C20.7985 182.693 20.8452 182.821 20.8658 182.955C21.1294 184.635 21.4336 186.294 21.7884 187.903C21.8167 188.034 21.8189 188.169 21.795 188.301C21.771 188.433 21.7213 188.559 21.6488 188.671C21.5762 188.784 21.4823 188.881 21.3722 188.957C21.2622 189.033 21.1384 189.086 21.0077 189.114L20.7948 189.165ZM19.2639 179.077C19.0116 179.078 18.768 178.985 18.5805 178.815C18.393 178.646 18.2752 178.412 18.25 178.16C18.0776 176.521 17.9357 174.801 17.8343 173.07C17.8338 172.811 17.9322 172.561 18.1094 172.371C18.2866 172.182 18.5291 172.068 18.7873 172.052C19.0547 172.038 19.3166 172.131 19.516 172.311C19.7155 172.49 19.8362 172.741 19.8519 173.009C19.9533 174.73 20.0952 176.42 20.2575 178.028C20.2715 178.161 20.2593 178.296 20.2216 178.424C20.1838 178.552 20.1212 178.672 20.0374 178.776C19.9536 178.88 19.8502 178.966 19.7332 179.03C19.6161 179.094 19.4876 179.134 19.3551 179.148L19.2639 179.077ZM18.7366 168.897C18.4677 168.897 18.2099 168.789 18.0197 168.598C17.8296 168.408 17.7227 168.149 17.7227 167.879C17.7227 166.168 17.8546 164.428 18.0269 162.717C18.0396 162.583 18.0786 162.453 18.1416 162.335C18.2047 162.216 18.2905 162.111 18.3942 162.026C18.4979 161.94 18.6174 161.877 18.7458 161.838C18.8742 161.8 19.0089 161.787 19.1422 161.801C19.2747 161.815 19.4032 161.855 19.5202 161.919C19.6373 161.983 19.7407 162.069 19.8245 162.173C19.9083 162.277 19.9709 162.397 20.0086 162.525C20.0464 162.653 20.0586 162.788 20.0446 162.921C19.8722 164.58 19.7809 166.26 19.7505 167.919C19.748 168.056 19.7182 168.19 19.6629 168.315C19.6076 168.439 19.5279 168.551 19.4286 168.644C19.3293 168.737 19.2124 168.81 19.0848 168.856C18.9572 168.903 18.8216 168.924 18.6859 168.917L18.7366 168.897ZM19.7505 158.778H19.568C19.4368 158.754 19.3115 158.705 19.1993 158.633C19.087 158.561 18.9899 158.468 18.9137 158.358C18.8374 158.248 18.7834 158.125 18.7548 157.994C18.7261 157.863 18.7234 157.728 18.7468 157.597C19.0611 155.907 19.4362 154.207 19.8823 152.507C19.9132 152.374 19.9704 152.248 20.0506 152.138C20.1308 152.027 20.2323 151.934 20.3491 151.864C20.4658 151.794 20.5954 151.748 20.7302 151.729C20.865 151.711 21.0022 151.719 21.1335 151.755C21.2649 151.79 21.3878 151.852 21.495 151.936C21.6021 152.021 21.6912 152.126 21.7571 152.245C21.8229 152.365 21.8641 152.496 21.8782 152.632C21.8923 152.768 21.879 152.905 21.8391 153.036C21.4133 154.645 21.0382 156.284 20.7441 157.923C20.7114 158.174 20.5862 158.405 20.393 158.569C20.1998 158.732 19.9526 158.818 19.6998 158.808L19.7505 158.778ZM22.3055 148.964C22.1919 148.966 22.0788 148.949 21.9709 148.913C21.8449 148.869 21.7289 148.8 21.6295 148.71C21.5301 148.62 21.4494 148.512 21.3919 148.391C21.3345 148.27 21.3014 148.138 21.2946 148.004C21.2878 147.87 21.3075 147.736 21.3525 147.61C21.9202 145.992 22.5691 144.383 23.2586 142.805C23.3692 142.56 23.5722 142.369 23.823 142.273C24.0739 142.178 24.3521 142.186 24.5969 142.296C24.7188 142.35 24.8289 142.428 24.9208 142.525C25.0128 142.622 25.0848 142.736 25.1329 142.86C25.1809 142.985 25.2039 143.118 25.2007 143.252C25.1975 143.386 25.168 143.518 25.114 143.64C24.4347 145.157 23.8162 146.694 23.2687 148.292C23.1973 148.491 23.0662 148.662 22.8937 148.782C22.7211 148.903 22.5156 148.966 22.3055 148.964ZM26.432 139.68C26.2622 139.681 26.0948 139.639 25.9454 139.558C25.828 139.494 25.7243 139.407 25.6403 139.303C25.5564 139.199 25.4937 139.079 25.456 138.95C25.4184 138.822 25.4064 138.687 25.4207 138.553C25.4351 138.42 25.4756 138.291 25.5398 138.173C26.3611 136.667 27.2431 135.17 28.1759 133.735C28.3225 133.508 28.5528 133.349 28.8161 133.293C29.0794 133.236 29.3543 133.287 29.5802 133.435C29.806 133.582 29.9644 133.813 30.0205 134.077C30.0766 134.342 30.0258 134.618 29.8793 134.844C28.9769 136.239 28.1151 137.685 27.3243 139.151C27.2367 139.311 27.1076 139.445 26.9506 139.538C26.7936 139.632 26.6144 139.68 26.432 139.68ZM31.9577 131.159C31.7337 131.159 31.5162 131.083 31.3393 130.946C31.1273 130.781 30.989 130.538 30.9548 130.271C30.9206 130.004 30.9932 129.734 31.1568 129.52C32.1706 128.156 33.3265 126.823 34.4722 125.56C34.5587 125.452 34.6663 125.363 34.7885 125.298C34.9106 125.233 35.0447 125.194 35.1825 125.183C35.3202 125.172 35.4588 125.189 35.5896 125.234C35.7204 125.279 35.8407 125.35 35.9432 125.443C36.0456 125.536 36.128 125.649 36.1853 125.776C36.2426 125.902 36.2736 126.039 36.2764 126.177C36.2791 126.316 36.2536 126.454 36.2014 126.582C36.1492 126.711 36.0714 126.827 35.9727 126.924C34.8574 128.156 33.7827 129.449 32.7688 130.762C32.6733 130.887 32.5504 130.987 32.4097 131.056C32.269 131.125 32.1143 131.16 31.9577 131.159ZM38.7812 123.646C38.6422 123.646 38.5047 123.617 38.3774 123.561C38.2501 123.505 38.1356 123.423 38.041 123.321C37.8522 123.13 37.7462 122.872 37.7462 122.603C37.7462 122.334 37.8522 122.076 38.041 121.885C39.2983 120.704 40.6163 119.574 41.9547 118.516C42.1671 118.342 42.4397 118.259 42.7126 118.287C42.9854 118.315 43.2361 118.45 43.4096 118.663C43.583 118.877 43.665 119.15 43.6374 119.424C43.6098 119.698 43.475 119.95 43.2626 120.124C41.9648 121.142 40.6873 122.252 39.4808 123.392C39.2881 123.563 39.0381 123.654 38.7812 123.646ZM46.7301 117.345C46.5106 117.347 46.2964 117.277 46.1199 117.146C45.9434 117.015 45.8139 116.83 45.7511 116.619C45.6882 116.407 45.6953 116.181 45.7713 115.975C45.8473 115.768 45.988 115.591 46.1724 115.472C47.5919 114.525 49.0721 113.619 50.5727 112.795C50.6892 112.73 50.8173 112.688 50.9496 112.673C51.082 112.658 51.216 112.669 51.3441 112.706C51.4721 112.743 51.5917 112.805 51.6959 112.888C51.8002 112.971 51.887 113.075 51.9516 113.192C52.0162 113.309 52.0573 113.437 52.0724 113.57C52.0875 113.703 52.0763 113.838 52.0396 113.966C52.0029 114.095 51.9413 114.215 51.8583 114.319C51.7754 114.424 51.6727 114.511 51.5562 114.576C50.0962 115.38 48.6666 116.256 47.2877 117.172C47.1227 117.283 46.9288 117.343 46.7301 117.345ZM55.5914 112.418C55.3603 112.417 55.1365 112.336 54.957 112.19C54.7776 112.044 54.6533 111.84 54.6048 111.614C54.5563 111.387 54.5864 111.15 54.6903 110.943C54.7941 110.735 54.9654 110.57 55.1757 110.474C56.727 109.761 58.3289 109.109 59.941 108.529C60.0671 108.479 60.2019 108.455 60.3375 108.459C60.473 108.462 60.6065 108.492 60.73 108.548C60.8535 108.604 60.9646 108.685 61.0567 108.785C61.1488 108.885 61.22 109.002 61.2661 109.13C61.3122 109.258 61.3323 109.394 61.3252 109.53C61.318 109.666 61.2838 109.799 61.2246 109.921C61.1653 110.044 61.0822 110.153 60.9801 110.243C60.8781 110.332 60.7592 110.4 60.6305 110.443C59.0691 111.013 57.5077 111.644 56.0071 112.326C55.8766 112.386 55.7349 112.417 55.5914 112.418Z" fill="#F8ED41"/>
</svg>
